<svg width="190" height="95" viewBox="0 0 190 95" fill="none" xmlns="http://www.w3.org/2000/svg">
<g id="plus 1">
<path id="Vector" d="M34.5165 29.4168C34.5788 29.7492 34.6827 30.5387 34.6481 30.8365C34.1425 34.5624 34.9874 38.1843 38.464 40.2204C41.5181 42.0071 46.1028 41.6539 48.5336 38.9184C49.2262 38.1359 50.1195 37.3602 50.7775 36.6954C51.096 36.3699 51.6085 36.3353 51.6016 36.3353L50.2026 36.3214L51.1584 36.5915C52.9105 37.9835 56.1932 39.8049 58.7625 40.7398C61.0202 41.5639 63.271 41.7163 64.6976 42.8382C67.5994 45.1235 70.4596 47.5336 73.2367 49.9644C78.2438 54.3551 81.4295 61.2527 88.3273 62.9564C96.7764 65.0409 102.635 58.441 104.533 50.9963L88.2096 48.7871C88.078 51.8966 87.6555 54.9576 89.283 57.8108C90.9105 60.6641 93.3483 61.9314 96.3539 62.3123C101.59 62.9771 107.019 63.2126 112.289 63.0048C117.56 62.7971 122.788 62.1461 127.705 60.484C129.832 59.7707 131.854 58.5172 134.028 57.9839C136.203 57.4507 137.99 58.0393 140.102 58.5518C150.49 61.0796 154.929 45.0543 144.52 42.5265C139.97 41.4185 135.303 40.6013 130.656 41.6816C127.11 42.5058 123.917 44.4241 120.364 45.3175C116.812 46.2108 113.397 46.4255 109.824 46.4463C107.76 46.4601 105.689 46.3909 103.626 46.2801C102.802 46.2385 101.977 46.1831 101.153 46.1277C100.537 46.0862 99.9205 46.0446 99.3042 45.9961C97.9745 45.8438 98.4523 46.0654 100.752 46.6748L103.736 49.6597L103.543 49.2164L104.678 53.4132C104.637 51.8827 104.775 50.3314 104.838 48.8009C105.232 39.417 90.8205 37.5472 88.5143 46.5917C88.3827 47.1527 88.2304 47.6998 88.0572 48.2469C88.4035 47.6305 88.3412 47.7483 87.8633 48.6139C88.9921 46.9934 90.6196 46.4463 92.7457 46.9726C92.9466 46.6194 92.725 46.3216 92.0878 46.0862C91.5615 43.78 87.6625 40.6428 85.9172 39.05C83.708 37.0347 81.3534 35.1649 79.0472 33.2535C76.4986 31.1343 73.9847 28.655 71.0067 27.1453C68.3889 25.8226 65.0855 25.6564 62.8832 24.4098C60.4662 23.0455 58.2985 21.3765 55.5768 20.5731C48.3189 18.4401 41.5804 21.7851 36.7811 27.173C41.4142 29.867 46.0404 32.5609 50.6736 35.2618C51.1722 31.5637 51.2138 28.6897 50.542 25.0054C49.7456 20.587 44.3645 18.0869 40.32 19.2019C35.6661 20.4831 33.7131 24.9915 34.5165 29.4238V29.4168Z" fill="#FF0000"/>
<path id="Vector_2" d="M165.837 71.9039C176.738 71.9039 185.575 63.0672 185.575 52.1666C185.575 41.266 176.738 32.4294 165.837 32.4294C154.936 32.4294 146.099 41.266 146.099 52.1666C146.099 63.0672 154.936 71.9039 165.837 71.9039Z" fill="#FF0000"/>
<g id="Group">
<path id="Vector_3" d="M162.284 47.5336C162.222 47.6582 162.097 47.7621 161.993 47.8591C161.848 47.9976 161.668 48.0737 161.481 48.1222C161.356 48.1499 161.225 48.1638 161.093 48.1776C160.899 48.1845 160.705 48.1845 160.511 48.1845H160.498C160.297 48.1845 160.096 48.1776 159.895 48.1776H159.424C159.237 48.1776 159.043 48.1845 158.849 48.1845C158.704 48.1845 158.558 48.1845 158.406 48.1984C158.094 48.2053 157.804 48.3092 157.527 48.4616C157.305 48.5862 157.146 48.7732 156.993 48.9671C156.972 49.0017 156.945 49.0364 156.938 49.071C156.855 49.3134 156.758 49.5419 156.716 49.7843C156.675 49.9921 156.695 50.2067 156.689 50.4145V50.553C156.695 50.6361 156.737 50.6708 156.82 50.6708H157.547C157.734 50.6638 157.928 50.6638 158.115 50.6569H158.531C158.697 50.6569 158.87 50.6638 159.036 50.6638H159.064C159.223 50.6638 159.383 50.6569 159.549 50.6569H159.729C159.916 50.6638 160.11 50.6638 160.297 50.6708C160.428 50.6777 160.567 50.6777 160.705 50.6915C161.003 50.74 161.259 50.8716 161.467 51.0863C161.613 51.2386 161.716 51.4118 161.772 51.6195C161.869 51.9796 161.869 52.3467 161.737 52.693C161.613 53.0254 161.377 53.2678 161.038 53.4063C160.802 53.5032 160.553 53.5448 160.304 53.5448C160.255 53.5448 160.207 53.5448 160.158 53.5379H160.027C159.881 53.5379 159.743 53.5448 159.597 53.5448H159.583C159.396 53.5448 159.209 53.5448 159.022 53.5379H158.981C158.78 53.5379 158.586 53.5448 158.385 53.5448H157.201C157.153 53.5448 157.097 53.5379 157.049 53.5379C157.007 53.5379 156.959 53.5309 156.917 53.5309C156.896 53.5309 156.882 53.5309 156.869 53.5379C156.695 53.5517 156.661 53.5794 156.661 53.7595C156.675 54.085 156.661 54.4035 156.647 54.729C156.647 54.9229 156.654 55.1168 156.661 55.3177C156.661 55.4493 156.661 55.5808 156.661 55.7124C156.661 55.9063 156.654 56.0933 156.654 56.2872C156.647 56.495 156.654 56.7097 156.654 56.9244C156.647 57.3122 156.626 57.6931 156.481 58.0532C156.405 58.2332 156.321 58.3995 156.19 58.538C156.044 58.6834 155.885 58.8011 155.691 58.8704C155.49 58.9396 155.283 58.9743 155.082 58.9743C154.909 58.9743 154.736 58.9466 154.562 58.8981C154.188 58.7873 153.932 58.538 153.773 58.1917C153.669 57.977 153.607 57.7485 153.593 57.513C153.586 57.2637 153.579 57.0144 153.572 56.772C153.572 56.5781 153.565 56.3842 153.565 56.1903V55.8024C153.572 55.6016 153.579 55.4077 153.579 55.2138C153.579 55.0684 153.586 54.9229 153.586 54.7706C153.586 54.5767 153.579 54.3827 153.579 54.1888C153.579 53.9949 153.586 53.801 153.586 53.614C153.593 53.3993 153.593 53.1916 153.586 52.9769V52.9146C153.593 52.7207 153.6 52.5267 153.6 52.3259C153.607 52.1389 153.6 51.945 153.6 51.7511C153.6 51.6126 153.6 51.4741 153.6 51.3356C153.6 51.1417 153.607 50.9478 153.614 50.7469C153.614 50.553 153.614 50.3522 153.607 50.1583V50.1167C153.627 49.8813 153.641 49.6458 153.662 49.4103C153.683 49.2234 153.711 49.0364 153.745 48.8494C153.78 48.6762 153.835 48.5031 153.884 48.3369C153.995 47.9491 154.195 47.6097 154.396 47.2704C154.493 47.1111 154.625 46.9726 154.742 46.8202C154.839 46.7094 154.929 46.5986 155.04 46.4948C155.165 46.3701 155.297 46.2454 155.449 46.1485C155.691 45.9961 155.941 45.8507 156.197 45.7191C156.349 45.6429 156.522 45.5875 156.689 45.5391C156.896 45.4837 157.111 45.4282 157.326 45.3867C157.471 45.3659 157.617 45.359 157.762 45.3451C157.935 45.3382 158.101 45.3244 158.274 45.3174H159.514C159.708 45.3174 159.895 45.3313 160.089 45.3313H160.151C160.317 45.3313 160.491 45.3244 160.664 45.3244H160.802C161.183 45.3244 161.55 45.359 161.89 45.5529C162.118 45.6845 162.277 45.8784 162.374 46.1208C162.568 46.6056 162.527 47.0834 162.291 47.5336H162.284Z" fill="white"/>
<path id="Vector_4" d="M178.109 47.3604C178.116 47.4851 178.109 47.6097 178.102 47.7275C178.102 47.9283 178.095 48.1292 178.095 48.3231C178.088 48.51 178.088 48.6901 178.088 48.8771C178.088 49.0641 178.095 49.2372 178.095 49.4173C178.095 49.6735 178.095 49.9367 178.088 50.1929C178.088 50.3799 178.074 50.5738 178.074 50.7608C178.074 50.9685 178.074 51.1763 178.081 51.3771V51.8134C178.074 52.0074 178.067 52.2013 178.06 52.3952C178.06 52.596 178.067 52.7899 178.067 52.9908V53.4478C178.06 53.6487 178.054 53.8495 178.047 54.0503C178.047 54.2373 178.054 54.4312 178.054 54.6251C178.054 54.7775 178.06 54.9229 178.054 55.0753C178.054 55.2692 178.047 55.4631 178.04 55.657C178.033 55.8163 178.033 55.9756 178.033 56.1349C178.033 56.3911 178.033 56.6473 178.026 56.9036C178.026 57.0698 178.012 57.236 178.019 57.4091C178.019 57.61 177.97 57.8039 177.894 58.0255C177.86 58.2333 177.721 58.4272 177.555 58.6003C177.382 58.7804 177.174 58.905 176.925 58.9466C176.786 58.9743 176.648 59.0089 176.502 59.0089H176.495C176.26 59.0089 176.017 58.9673 175.796 58.8635C175.616 58.7873 175.45 58.6765 175.339 58.5172C175.249 58.3925 175.173 58.254 175.11 58.1086C174.999 57.8524 174.958 57.5823 174.958 57.2983C174.965 56.959 174.958 56.6127 174.965 56.2664C174.965 55.9133 174.993 55.5531 174.999 55.193C175.006 54.9991 174.999 54.8052 174.999 54.6113C175.006 54.4035 175.02 54.1958 175.02 53.988C175.027 53.7733 175.027 53.5586 175.034 53.3439C175.034 53.1847 175.034 53.0323 175.041 52.8799C175.048 52.6791 175.055 52.4852 175.062 52.2913C175.069 52.042 175.069 51.7927 175.069 51.5364C175.069 51.5226 175.076 51.5087 175.069 51.5018C175.055 51.4672 175.034 51.4464 175.02 51.4187C174.993 51.4395 174.965 51.4533 174.951 51.4741C174.826 51.6819 174.715 51.8896 174.591 52.0835C174.452 52.319 174.307 52.5475 174.161 52.783C174.127 52.8245 174.099 52.873 174.071 52.9146C173.912 53.1777 173.76 53.434 173.6 53.6902C173.462 53.9257 173.323 54.1542 173.178 54.3828C173.046 54.6044 172.908 54.826 172.769 55.0476C172.749 55.0891 172.721 55.1238 172.693 55.1584C172.562 55.38 172.444 55.6085 172.299 55.8232C172.112 56.1072 171.869 56.3426 171.53 56.4465C171.398 56.4811 171.246 56.4881 171.107 56.495H171.024C170.92 56.495 170.816 56.4881 170.719 56.4742C170.539 56.4396 170.394 56.3496 170.249 56.2388C170.02 56.0518 169.875 55.8094 169.722 55.567C169.438 55.0891 169.147 54.6113 168.863 54.1404C168.586 53.6764 168.316 53.2054 168.032 52.7414C167.859 52.4506 167.679 52.1597 167.506 51.8619C167.444 51.765 167.395 51.6611 167.333 51.5641C167.319 51.5295 167.305 51.5018 167.278 51.4741C167.264 51.4533 167.229 51.4395 167.208 51.4395H167.201C167.201 51.4395 167.16 51.481 167.153 51.5018C167.146 51.5364 167.146 51.5711 167.146 51.5988C167.146 51.7857 167.16 51.9727 167.16 52.1597C167.167 52.2982 167.167 52.4298 167.167 52.5614V53.6625C167.167 53.8633 167.174 54.0711 167.174 54.2789C167.174 54.4728 167.174 54.6667 167.188 54.8606C167.188 55.0268 167.194 55.1861 167.194 55.3523C167.194 55.5878 167.201 55.8232 167.201 56.0656C167.201 56.2526 167.194 56.4396 167.194 56.6266C167.194 56.7928 167.201 56.9659 167.201 57.139C167.194 57.6169 167.118 58.074 166.827 58.4687C166.654 58.6903 166.426 58.8427 166.149 58.9189C165.989 58.9673 165.823 58.9881 165.664 58.9881C165.477 58.9881 165.29 58.9604 165.11 58.905C164.854 58.8288 164.625 58.6834 164.466 58.4479C164.313 58.2194 164.203 57.977 164.175 57.7C164.154 57.4853 164.133 57.2706 164.126 57.0559C164.12 56.7235 164.12 56.3911 164.12 56.0587C164.12 55.8648 164.133 55.6639 164.133 55.47V54.3343C164.133 54.1057 164.133 53.8772 164.14 53.6487V53.2539C164.14 53.0739 164.147 52.8938 164.147 52.7137V52.0281C164.147 51.8619 164.147 51.6957 164.147 51.5226C164.147 51.2802 164.147 51.0378 164.154 50.7954C164.154 50.6154 164.161 50.4284 164.161 50.2483V49.1749C164.161 48.981 164.168 48.7871 164.175 48.5931V48.0045C164.175 48.0045 164.168 47.9422 164.168 47.9075C164.175 47.6998 164.196 47.4851 164.189 47.2773C164.175 46.9934 164.237 46.7302 164.279 46.4532C164.32 46.2039 164.452 45.9823 164.604 45.7884C164.75 45.6152 164.951 45.5044 165.172 45.4352C165.408 45.359 165.643 45.3382 165.886 45.3382C166.059 45.3382 166.232 45.3521 166.412 45.3729C166.661 45.4006 166.89 45.4906 167.104 45.6429C167.409 45.8646 167.596 46.1762 167.783 46.4878C168.129 47.0834 168.476 47.679 168.822 48.2746C169.009 48.6001 169.196 48.9325 169.383 49.258C169.688 49.7912 169.999 50.3245 170.304 50.8577C170.47 51.1348 170.629 51.4118 170.789 51.6957C170.865 51.8273 170.934 51.9658 171.01 52.1043C171.038 52.1459 171.066 52.1666 171.1 52.1666C171.128 52.1666 171.156 52.1459 171.177 52.1112C171.267 51.9727 171.35 51.8342 171.433 51.7026C171.53 51.5295 171.627 51.3494 171.731 51.1763C171.911 50.8854 172.084 50.5877 172.257 50.2899C172.395 50.0544 172.527 49.812 172.666 49.5766C172.818 49.3203 172.97 49.071 173.123 48.8148C173.268 48.5654 173.414 48.3092 173.566 48.053C173.725 47.7898 173.878 47.5266 174.037 47.2635C174.175 47.0211 174.321 46.7787 174.459 46.5363C174.577 46.3286 174.709 46.1346 174.875 45.9615C175.062 45.7745 175.276 45.636 175.519 45.5321C175.72 45.4421 175.927 45.3798 176.149 45.3729C176.281 45.3729 176.405 45.3659 176.53 45.3659C176.599 45.3659 176.668 45.3659 176.731 45.3729C177.029 45.4006 177.306 45.4837 177.541 45.6845C177.811 45.92 177.95 46.2177 178.012 46.5502C178.06 46.8203 178.074 47.0903 178.102 47.3604H178.109Z" fill="white"/>
</g>
<g id="Group_2">
<g id="Group_3">
<path id="Vector_5" d="M146.231 60.2555C146.203 59.8677 146.058 59.2236 146.058 59.2236C146.003 58.9327 145.933 58.6765 145.836 58.4272C145.587 57.7346 145.192 57.1252 144.652 56.592C144.631 56.5712 144.611 56.5504 144.59 56.5296L144.576 56.5158L144.562 56.5019C144.437 56.3842 144.32 56.2734 144.195 56.1834C142.789 55.0615 141.106 54.2512 139.188 53.7803C138.045 53.4963 136.868 53.2539 135.725 53.0185L134.811 52.8315H134.769C134.292 52.7207 133.814 52.6168 133.343 52.5198C133.024 52.4506 132.713 52.3675 132.401 52.2844C132.186 52.229 131.965 52.1597 131.75 52.0905L131.494 52.0143L131.244 51.9381C131.168 51.9104 131.085 51.8896 131.009 51.8619C130.863 51.8135 130.69 51.7511 130.531 51.6819C129.755 51.3979 129.021 51.0309 128.343 50.6015C127.56 50.1237 127.075 49.3896 126.944 48.4893C126.771 47.3674 126.958 46.2732 127.498 45.2344C128.675 42.9421 130.496 41.1276 132.893 39.8464C133.28 39.6456 133.634 39.5002 133.973 39.4171C134.333 39.327 134.638 39.2855 134.922 39.2855C135.871 39.2855 136.612 39.7426 137.179 40.6844C137.581 41.3423 137.997 42.0487 138.516 42.9836C138.53 43.0113 138.544 43.0321 138.551 43.046C138.606 43.1498 138.675 43.2468 138.752 43.3299C138.828 43.4061 138.911 43.4684 139.008 43.5307C139.195 43.6346 139.423 43.69 139.7 43.69H139.79C141.639 43.6069 142.748 42.7551 143.191 41.0861C143.232 40.9476 143.274 40.8091 143.302 40.6706C143.717 39.0085 143.627 37.284 143.011 35.2411C142.983 35.1233 142.948 35.0195 142.914 34.9156C142.845 34.694 142.761 34.4724 142.664 34.2507C142.387 33.5859 142.013 33.0042 141.563 32.5125C141.501 32.4432 141.432 32.367 141.369 32.3047L141.217 32.1801C140.843 31.8476 140.441 31.5776 139.998 31.3559C139.728 31.2174 139.423 31.1066 139.091 31.0166H139.077L139.029 31.0027C138.911 30.975 138.8 30.9473 138.689 30.9266H138.655C138.558 30.8919 138.461 30.885 138.336 30.8712C138.211 30.8504 138.094 30.8365 137.976 30.8296C137.81 30.8158 137.65 30.8088 137.484 30.8088C137.145 30.8088 136.812 30.8296 136.494 30.8781C134.569 31.1274 132.823 31.6884 131.307 32.5471C126.397 35.2895 122.643 39.327 120.143 44.5488C118.827 47.2773 118.273 49.6389 118.405 51.9797C118.418 52.1667 118.432 52.3536 118.453 52.5337C118.474 52.7068 118.508 52.88 118.543 53.0462V53.0947C118.585 53.2609 118.626 53.4271 118.675 53.5864C118.751 53.8357 118.848 54.0781 118.945 54.2997C119.062 54.5421 119.187 54.7567 119.319 54.9576C119.367 55.0268 119.402 55.0892 119.45 55.1446L119.471 55.1653L119.485 55.1861C119.526 55.2484 119.568 55.3038 119.617 55.3592C119.679 55.4354 119.741 55.4978 119.797 55.567C119.859 55.6293 119.914 55.6917 119.977 55.7609L120.081 55.8579C120.177 55.9618 120.268 56.0379 120.351 56.1072C120.932 56.585 121.542 56.9798 122.172 57.2983C122.574 57.52 122.962 57.6931 123.37 57.8455C123.973 58.0809 124.603 58.2748 125.295 58.4272C126.847 58.7804 128.446 59.0782 129.991 59.3621C130.649 59.4868 131.3 59.6114 131.951 59.7361C133.405 60.02 134.576 60.4702 135.545 61.1281C136.411 61.7167 136.854 62.5408 136.833 63.5104C136.826 63.6489 136.812 63.8428 136.771 64.0506C136.743 64.196 136.702 64.3553 136.639 64.5284C136.632 64.5769 136.619 64.6185 136.598 64.6669C136.542 64.8262 136.466 65.0063 136.404 65.1517C136.245 65.4841 136.078 65.7819 135.884 66.0589C135.801 66.1767 135.697 66.3152 135.566 66.4675C135.441 66.613 135.323 66.7376 135.206 66.8415C135.102 66.9592 134.97 67.077 134.825 67.1878C134.569 67.4024 134.278 67.6033 133.973 67.7764C133.523 68.0396 133.059 68.2681 132.553 68.4759C131.134 69.0715 129.658 69.3762 128.176 69.3762C127.248 69.3762 126.341 69.2654 125.399 69.0368C124.291 68.7667 123.218 68.3304 122.179 67.908C121.715 67.721 121.258 67.534 120.794 67.3609C120.718 67.3332 120.648 67.3055 120.579 67.2778C120.496 67.2432 120.406 67.2085 120.316 67.1739C120.261 67.1601 120.212 67.1462 120.157 67.1393C119.984 67.1047 119.824 67.077 119.672 67.07C119.506 67.0493 119.36 67.0423 119.18 67.0423C119 67.0423 118.841 67.0493 118.702 67.07C118.564 67.077 118.432 67.0977 118.266 67.1393C118.121 67.1601 117.989 67.1947 117.83 67.2501C117.026 67.4994 116.272 68.0119 115.586 68.7598C114.983 69.4108 114.734 70.1795 114.824 71.1075C114.866 71.5715 114.963 72.0286 115.115 72.4649C115.226 72.7488 115.343 73.0051 115.489 73.2405C115.794 73.7669 116.202 74.2239 116.708 74.5979C116.729 74.6117 116.742 74.6256 116.763 74.6325C116.888 74.7364 117.013 74.8126 117.151 74.8888C117.428 75.055 117.712 75.2004 117.989 75.3112C118.072 75.3389 118.155 75.3735 118.252 75.4082C118.598 75.5397 118.938 75.6506 119.201 75.7267C120.157 76.0176 121.154 76.2323 122.013 76.3985C123.585 76.7101 125.157 76.8694 126.68 76.8694C128.35 76.8694 130.012 76.6755 131.611 76.2877C136.044 75.2212 139.936 72.7211 143.191 68.8498C144.597 67.1739 145.476 65.5395 145.878 63.8567C145.989 63.4273 146.058 62.9702 146.127 62.5339C146.134 62.4993 146.141 62.4577 146.148 62.4231C146.148 62.4093 146.148 62.4023 146.155 62.3885C146.286 61.322 146.266 60.574 146.231 60.2555Z" fill="#FF0000"/>
<path id="Vector_6" d="M137.491 30.8088C137.657 30.8088 137.817 30.8088 137.983 30.8296C138.101 30.8296 138.218 30.8504 138.343 30.8712C138.468 30.885 138.565 30.8919 138.662 30.9196H138.675H138.696C138.807 30.9404 138.918 30.9681 139.035 30.9958L139.084 31.0097H139.098C139.43 31.0997 139.735 31.2105 140.005 31.349C140.448 31.5706 140.85 31.8407 141.224 32.1731L141.376 32.2978C141.439 32.3601 141.508 32.4363 141.57 32.5056C142.02 32.9973 142.394 33.579 142.671 34.2438C142.768 34.4654 142.851 34.687 142.921 34.9087C142.955 35.0125 142.99 35.1164 143.018 35.2341C143.634 37.2771 143.724 39.0015 143.309 40.6636C143.281 40.8021 143.239 40.9406 143.198 41.0792C142.754 42.7482 141.646 43.6 139.797 43.6762H139.763H139.707C139.43 43.6762 139.202 43.6208 139.015 43.5169C138.918 43.4546 138.835 43.3922 138.758 43.316C138.682 43.2329 138.613 43.136 138.558 43.0321C138.551 43.0183 138.537 42.9975 138.523 42.9698C138.004 42.0349 137.588 41.3285 137.186 40.6706C136.619 39.7287 135.877 39.2716 134.929 39.2716C134.645 39.2716 134.34 39.3132 133.98 39.4032C133.641 39.4863 133.287 39.6318 132.9 39.8326C130.503 41.1138 128.682 42.9282 127.505 45.2205C126.964 46.2593 126.777 47.3535 126.951 48.4754C127.082 49.3757 127.567 50.1098 128.35 50.5877C129.028 51.017 129.762 51.3841 130.538 51.668C130.697 51.7373 130.87 51.7996 131.016 51.8481C131.092 51.8758 131.175 51.8966 131.251 51.9243L131.501 52.0005L131.757 52.0766C131.972 52.1459 132.193 52.2151 132.408 52.2705C132.719 52.3536 133.031 52.4368 133.35 52.506C133.821 52.603 134.298 52.7068 134.776 52.8107H134.818L135.732 53.0046C136.875 53.2401 138.052 53.4825 139.195 53.7664C141.113 54.2373 142.796 55.0476 144.202 56.1695C144.327 56.2595 144.444 56.3704 144.569 56.4881L144.583 56.5019L144.597 56.5158C144.597 56.5158 144.638 56.5573 144.659 56.5781C145.199 57.1114 145.594 57.7208 145.843 58.4133C145.94 58.6627 146.009 58.9189 146.065 59.2098C146.065 59.2098 146.203 59.8538 146.238 60.2416C146.273 60.5602 146.293 61.3081 146.162 62.3746C146.155 62.3885 146.155 62.3954 146.155 62.4093C146.148 62.4439 146.141 62.4855 146.134 62.5201C146.065 62.9564 145.996 63.4134 145.885 63.8428C145.483 65.5257 144.604 67.1601 143.198 68.836C139.943 72.7073 136.051 75.2073 131.618 76.2738C130.019 76.6617 128.356 76.8556 126.687 76.8556C125.164 76.8556 123.592 76.6963 122.02 76.3847C121.161 76.2184 120.164 76.0038 119.208 75.7129C118.945 75.6367 118.605 75.5259 118.259 75.3943C118.162 75.3597 118.079 75.3251 117.996 75.2974C117.719 75.1866 117.435 75.0411 117.158 74.8749C117.019 74.7987 116.895 74.7226 116.77 74.6187C116.749 74.6118 116.736 74.5979 116.715 74.5841C116.209 74.2101 115.801 73.753 115.496 73.2267C115.35 72.9912 115.233 72.735 115.122 72.451C114.97 72.0147 114.873 71.5577 114.831 71.0937C114.741 70.1657 114.99 69.397 115.593 68.746C116.278 67.998 117.033 67.4856 117.837 67.2362C117.996 67.1808 118.128 67.1462 118.273 67.1254C118.439 67.0839 118.571 67.0631 118.709 67.0562C118.848 67.0354 119.007 67.0285 119.187 67.0285C119.367 67.0285 119.513 67.0354 119.679 67.0562C119.831 67.0631 119.99 67.0908 120.164 67.1254C120.219 67.1254 120.268 67.1462 120.323 67.1601C120.413 67.1947 120.503 67.2293 120.586 67.264C120.655 67.2917 120.725 67.3194 120.801 67.3471C121.265 67.5202 121.722 67.7072 122.186 67.8942C123.225 68.3166 124.298 68.7529 125.406 69.023C126.348 69.2515 127.255 69.3623 128.183 69.3623C129.665 69.3623 131.14 69.0576 132.56 68.462C133.066 68.2543 133.53 68.0257 133.98 67.7626C134.285 67.5894 134.576 67.3886 134.832 67.1739C134.977 67.0631 135.109 66.9454 135.213 66.8276C135.33 66.7238 135.448 66.5991 135.573 66.4537C135.704 66.3013 135.808 66.1628 135.891 66.0451C136.085 65.7681 136.251 65.4703 136.411 65.1379C136.473 64.9924 136.549 64.8124 136.605 64.6531C136.625 64.6046 136.639 64.5631 136.646 64.5146C136.709 64.3414 136.75 64.1822 136.778 64.0367C136.819 63.829 136.833 63.6351 136.84 63.4966C136.861 62.527 136.418 61.7029 135.552 61.1142C134.582 60.4563 133.412 60.0062 131.958 59.7222C131.307 59.5976 130.656 59.4729 129.998 59.3483C128.453 59.0643 126.854 58.7665 125.302 58.4133C124.61 58.261 123.98 58.0671 123.377 57.8316C122.968 57.6792 122.581 57.5061 122.179 57.2845C121.549 56.9659 120.939 56.5712 120.358 56.0933C120.274 56.0241 120.184 55.9479 120.087 55.851L119.984 55.7471C119.921 55.6778 119.866 55.6155 119.804 55.5532C119.748 55.4839 119.686 55.4216 119.623 55.3454C119.575 55.29 119.533 55.2346 119.492 55.1723L119.478 55.1515L119.457 55.1307C119.409 55.0753 119.374 55.013 119.326 54.9437C119.194 54.7429 119.069 54.5282 118.952 54.2858C118.855 54.0642 118.758 53.8218 118.682 53.5725C118.633 53.4132 118.592 53.247 118.557 53.0808V53.0323C118.515 52.8661 118.481 52.693 118.46 52.5199C118.439 52.3398 118.425 52.1528 118.411 51.9658C118.28 49.625 118.834 47.2635 120.15 44.5349C122.65 39.3132 126.403 35.2757 131.314 32.5333C132.83 31.6745 134.576 31.1136 136.501 30.8642C136.819 30.8158 137.152 30.795 137.491 30.795M137.491 25.2547C136.882 25.2547 136.293 25.2963 135.732 25.3794C133.114 25.7256 130.704 26.5082 128.578 27.7132C122.678 31.0097 118.148 35.8644 115.15 42.1457C113.439 45.6914 112.691 49.0156 112.878 52.2775C112.878 52.3121 112.878 52.3398 112.878 52.3744C112.899 52.6376 112.92 52.9007 112.947 53.157C112.989 53.4894 113.037 53.7664 113.086 54.0157C113.1 54.0781 113.107 54.1473 113.12 54.2096C113.19 54.5421 113.273 54.8745 113.37 55.1861C113.501 55.6155 113.661 56.0449 113.861 56.5089C113.889 56.5781 113.924 56.6404 113.951 56.7097C114.166 57.1529 114.402 57.5684 114.672 57.984C114.693 58.0117 114.706 58.0394 114.727 58.0671C114.817 58.2056 114.928 58.3649 115.073 58.5449C115.17 58.6834 115.274 58.8081 115.378 58.9327C115.434 59.002 115.496 59.0643 115.551 59.1266C115.634 59.2236 115.724 59.3206 115.814 59.4175L115.828 59.4383C115.911 59.5283 116.001 59.6253 116.091 59.7153C116.112 59.7361 116.133 59.7569 116.154 59.7776C116.403 60.0269 116.618 60.207 116.791 60.3594C116.798 60.3663 116.812 60.3732 116.819 60.3871C117.324 60.8026 117.851 61.1835 118.398 61.5298C118.308 61.5367 118.218 61.5436 118.134 61.5575C117.809 61.5852 117.49 61.6336 117.158 61.7098C116.798 61.7791 116.445 61.8691 116.085 61.9937C114.374 62.5409 112.823 63.5589 111.486 65.0271C109.845 66.7999 109.055 69.1546 109.291 71.6339C109.374 72.548 109.568 73.4483 109.865 74.307C109.886 74.3694 109.914 74.4317 109.935 74.494C110.17 75.0896 110.42 75.6159 110.71 76.0938C111.396 77.2573 112.296 78.2545 113.391 79.0648C113.418 79.0855 113.439 79.0994 113.467 79.1202C113.487 79.134 113.501 79.1479 113.522 79.1617C113.848 79.4041 114.138 79.5773 114.367 79.7088C114.88 80.0135 115.399 80.2698 115.911 80.4706C115.988 80.4983 116.064 80.533 116.14 80.5537C116.202 80.5745 116.251 80.5953 116.306 80.6161C116.839 80.8169 117.296 80.9623 117.601 81.0523C118.869 81.4332 120.115 81.6895 120.939 81.8557C122.844 82.2366 124.776 82.4305 126.66 82.4305C128.779 82.4305 130.877 82.1812 132.893 81.6895C138.488 80.346 143.378 77.2295 147.408 72.4303C149.375 70.0895 150.622 67.728 151.231 65.2071C151.391 64.57 151.487 63.9813 151.564 63.5035C151.591 63.358 151.612 63.2195 151.633 63.081C151.785 61.8552 151.82 60.6779 151.723 59.7569C151.668 59.1266 151.536 58.4549 151.46 58.1225C151.349 57.5477 151.197 57.0144 151.003 56.5019C150.469 55.0545 149.638 53.7664 148.523 52.6653L148.489 52.6237C148.454 52.5891 148.385 52.5268 148.35 52.4922C148.184 52.3329 147.914 52.0766 147.561 51.8065C145.982 50.56 144.188 49.5904 142.207 48.9117C145.324 48.1084 147.609 45.8646 148.51 42.6166C148.565 42.4365 148.627 42.2011 148.697 41.9171C149.32 39.3478 149.202 36.6815 148.35 33.7729C148.288 33.5374 148.226 33.3435 148.184 33.2119C148.066 32.831 147.921 32.4501 147.762 32.0831C147.249 30.8642 146.543 29.7562 145.67 28.8005C145.545 28.662 145.414 28.5165 145.289 28.3988C145.158 28.2672 145.026 28.1426 144.881 28.0318L144.797 27.9694C144.098 27.3669 143.329 26.8475 142.498 26.432C141.896 26.1273 141.259 25.8849 140.538 25.691C140.448 25.6633 140.358 25.6425 140.268 25.6217H140.247C140.116 25.5871 139.984 25.5525 139.853 25.5317C139.513 25.4555 139.229 25.4209 139.049 25.4001C138.821 25.3655 138.592 25.3447 138.371 25.3309C138.073 25.3101 137.775 25.2963 137.477 25.2963L137.491 25.2547ZM133.1 46.6956C133.315 46.4186 133.557 46.1554 133.821 45.9061C134.063 46.3147 134.354 46.7025 134.672 47.0557C134.693 47.0834 134.721 47.1111 134.742 47.1319C134.659 47.1181 134.576 47.0973 134.492 47.0834C134.264 47.035 134.049 46.9726 133.828 46.9172C133.814 46.9172 133.8 46.9103 133.786 46.9034C133.675 46.8757 133.564 46.8341 133.454 46.7995C133.412 46.7857 133.37 46.7718 133.329 46.7649L133.093 46.6956H133.1Z" fill="#FF0000"/>
</g>
<g id="Group_4">
<path id="Vector_7" d="M113.668 61.1835C113.114 59.5837 112.566 57.8524 112.289 56.031C111.673 52.1182 111.763 48.1569 111.943 44.4587L112.068 42.021C112.082 41.7717 112.102 41.5293 112.123 41.2869C112.158 40.8714 112.185 40.4766 112.185 40.075V39.8741C112.185 39.7149 112.165 39.5556 112.144 39.4032C112.089 39.0569 111.992 38.773 111.839 38.5306L111.784 38.4475C111.631 38.2259 111.424 38.0597 111.167 37.935C110.994 37.845 110.807 37.7827 110.586 37.7481C110.288 37.6926 110.004 37.6649 109.706 37.6649C108.778 37.6649 107.919 37.9697 107.151 38.5652C105.53 39.8187 104.63 41.2661 104.387 42.9836C104.353 43.2329 104.325 43.4961 104.318 43.7939C104.311 44.1817 104.304 44.5626 104.29 44.9435C104.263 45.7745 104.214 46.5225 104.159 47.2358C104.013 49.1818 103.736 51.1071 103.349 52.9631C103.058 54.3551 102.656 55.7124 102.164 57.0006C101.901 57.6723 101.617 58.3233 101.319 58.9258C100.994 59.5837 100.648 60.207 100.288 60.7887C99.2972 62.3885 98.1268 63.4827 96.714 64.1545C96.437 64.286 96.1461 64.3761 95.8691 64.4107C95.696 64.4384 95.5505 64.4453 95.412 64.4453C95.3913 64.4453 95.3497 64.4453 95.3081 64.4384C95.0796 64.4384 94.858 64.4038 94.6225 64.3414C93.7084 64.106 93.0089 63.5243 92.538 62.6101C91.7969 61.1489 91.4368 59.4452 91.4022 57.2429C91.326 52.693 92.0532 47.9353 93.6183 42.6997C94.1377 40.9753 94.7195 38.6899 94.6087 36.3145C94.6087 36.1275 94.5879 35.9405 94.5671 35.7536C94.5394 35.4835 94.4979 35.2203 94.4286 34.9779C94.3247 34.5416 94.1585 34.1607 93.9369 33.8421C93.8884 33.766 93.8469 33.7036 93.7984 33.6552C93.6737 33.5028 93.556 33.3851 93.4313 33.2812C93.3898 33.2466 93.3552 33.2119 93.3344 33.205L93.3067 33.1912L93.279 33.1704C93.279 33.1704 93.2097 33.1219 93.1682 33.1081L93.1405 33.0942L93.1128 33.0804C93.1128 33.0804 93.0435 33.0457 93.0089 33.0319C92.8704 32.9765 92.7596 32.9488 92.6418 32.9419C92.4064 32.9142 92.1778 32.9003 91.9562 32.9003C90.2595 32.9003 88.9713 33.5859 88.0156 34.9848C87.3854 35.899 86.8522 36.8685 86.4089 37.8658C86.3189 38.0666 86.2358 38.2605 86.1596 38.4614C85.9934 38.8561 85.848 39.2647 85.7095 39.6664C85.2455 41.0168 84.8853 42.4365 84.6014 44.0155C84.3451 45.3937 84.1789 46.7857 84.0543 47.8452C83.6872 51.3079 83.6595 54.6806 83.985 57.8662C84.3244 61.3081 84.9754 64.2999 85.9726 67.0008C86.402 68.1642 86.866 69.1684 87.3923 70.0756C87.6763 70.5673 87.981 71.0313 88.3065 71.4676C88.6251 71.897 88.9921 72.3264 89.3938 72.7419C89.4631 72.8112 89.5254 72.8735 89.6016 72.9427C90.2041 73.5245 90.8412 73.9469 91.513 74.217C91.8108 74.3347 92.1086 74.4248 92.4064 74.4802C92.7249 74.5425 93.0435 74.5702 93.369 74.5702H93.4036C93.5144 74.5702 93.6183 74.5702 93.7222 74.5564C94.9619 74.4802 96.1669 74.0854 97.3304 73.386C99.9066 71.8416 101.97 69.6463 103.633 66.6614C103.847 66.2805 104.048 65.8858 104.242 65.498C104.422 65.1379 104.602 64.7847 104.796 64.4315C104.935 64.1614 105.101 63.9259 105.281 63.7251C105.44 63.552 105.655 63.358 105.925 63.358C106.368 63.358 106.507 63.8567 106.562 64.0437C106.791 64.8193 107.04 65.6503 107.338 66.4745C107.594 67.167 108.079 67.6448 108.834 67.9288C108.896 67.9565 108.951 67.9773 109.014 67.9911C109.235 68.0673 109.443 68.1158 109.644 68.1504C109.865 68.185 110.059 68.1989 110.239 68.1989C111.555 68.1989 112.719 67.4579 113.356 66.2113C114.166 64.6254 114.27 62.9217 113.661 61.1489L113.668 61.1835Z" fill="#FF0000"/>
<path id="Vector_8" d="M91.9631 32.9141C92.1848 32.9141 92.4064 32.928 92.6488 32.9557C92.7665 32.9626 92.8704 32.9903 93.0158 33.0457C93.0504 33.0596 93.0851 33.0665 93.1197 33.0942L93.1474 33.1081L93.1751 33.1219C93.2167 33.1358 93.2513 33.1565 93.2859 33.1842L93.3136 33.205L93.3413 33.2189C93.3413 33.2189 93.3967 33.2604 93.4383 33.295C93.5699 33.392 93.6876 33.5166 93.8053 33.669C93.8538 33.7244 93.8953 33.7867 93.9438 33.856C94.1724 34.1746 94.3386 34.5555 94.4355 34.9918C94.4979 35.2341 94.5463 35.4904 94.574 35.7674C94.5948 35.9544 94.6087 36.1414 94.6156 36.3283C94.7264 38.7037 94.1447 40.9891 93.6253 42.7135C92.0532 47.9491 91.3329 52.7068 91.4091 57.2568C91.4437 59.4591 91.8039 61.1627 92.5449 62.6239C93.0158 63.5381 93.7153 64.1198 94.6295 64.3553C94.8649 64.4176 95.0865 64.4453 95.3151 64.4522C95.3566 64.4592 95.3982 64.4592 95.419 64.4592C95.5575 64.4592 95.7029 64.4453 95.876 64.4245C96.16 64.383 96.4439 64.2999 96.7209 64.1683C98.1337 63.5035 99.3041 62.4023 100.294 60.8026C100.655 60.2208 101.001 59.5976 101.326 58.9397C101.624 58.3371 101.908 57.6862 102.171 57.0144C102.67 55.7332 103.065 54.3689 103.356 52.9769C103.743 51.1209 104.013 49.1957 104.166 47.2496C104.228 46.5363 104.27 45.7815 104.297 44.9573C104.311 44.5765 104.318 44.1956 104.325 43.8077C104.332 43.5099 104.353 43.2468 104.394 42.9975C104.637 41.28 105.537 39.8395 107.158 38.5791C107.926 37.9766 108.785 37.6788 109.713 37.6788C110.011 37.6788 110.295 37.7065 110.593 37.7619C110.814 37.7965 110.994 37.8589 111.174 37.9489C111.438 38.0735 111.645 38.2467 111.791 38.4614L111.846 38.5445C111.999 38.7868 112.095 39.0708 112.151 39.4171C112.172 39.5625 112.185 39.7287 112.192 39.888V40.0888C112.192 40.4905 112.158 40.8852 112.13 41.3008C112.109 41.5431 112.089 41.7925 112.075 42.0348L111.95 44.4726C111.763 48.1707 111.68 52.132 112.296 56.0448C112.573 57.8593 113.127 59.5906 113.674 61.1973C114.284 62.9702 114.18 64.6739 113.37 66.2598C112.733 67.5063 111.569 68.2473 110.253 68.2473C110.073 68.2473 109.879 68.2335 109.658 68.1989C109.457 68.1642 109.256 68.1158 109.027 68.0396C108.965 68.0257 108.91 67.998 108.847 67.9773C108.093 67.6864 107.608 67.2155 107.352 66.5229C107.054 65.6988 106.804 64.8678 106.576 64.0921C106.52 63.9051 106.382 63.4065 105.939 63.4065C105.669 63.4065 105.454 63.6004 105.295 63.7736C105.115 63.9744 104.948 64.2099 104.81 64.4799C104.616 64.8331 104.436 65.1863 104.256 65.5464C104.062 65.9273 103.861 66.329 103.646 66.7099C101.977 69.6947 99.9205 71.8901 97.3442 73.4344C96.1808 74.1339 94.9688 74.5286 93.7361 74.6048C93.6253 74.6187 93.5214 74.6187 93.4175 74.6187H93.3829C93.0574 74.6187 92.7388 74.591 92.4202 74.5286C92.1224 74.4732 91.8246 74.3832 91.5268 74.2655C90.862 74.0023 90.2179 73.5729 89.6154 72.9912C89.5462 72.9289 89.4769 72.8596 89.4077 72.7904C89.006 72.3749 88.6459 71.9455 88.3204 71.5161C87.9949 71.0798 87.6901 70.6089 87.4062 70.1241C86.8799 69.2169 86.4089 68.2127 85.9865 67.0493C84.9892 64.3484 84.3382 61.3635 83.9989 57.9147C83.6734 54.7221 83.7011 51.3495 84.0681 47.8937C84.1859 46.8341 84.359 45.4421 84.6152 44.064C84.8992 42.485 85.2662 41.0653 85.7233 39.7148C85.8618 39.3063 86.0073 38.9046 86.1735 38.5098C86.2566 38.309 86.3328 38.1082 86.4228 37.9143C86.8591 36.917 87.3993 35.9475 88.0295 35.0333C88.9852 33.6275 90.2733 32.9488 91.9701 32.9488M91.9701 27.4085C88.4589 27.4085 85.4324 29.0082 83.4518 31.9169C82.6415 33.1011 81.9351 34.3685 81.3603 35.6704C81.2495 35.9197 81.1456 36.1691 81.0417 36.4322C80.8339 36.9309 80.6469 37.4433 80.4738 37.9558C79.9267 39.5625 79.4973 41.2454 79.1649 43.0875C78.881 44.618 78.694 46.1347 78.5693 47.2843C78.5693 47.2981 78.5693 47.305 78.5693 47.3189C78.1607 51.1625 78.133 54.916 78.5001 58.4895C78.881 62.3954 79.6358 65.8304 80.8062 68.9884C81.3395 70.4496 81.942 71.7447 82.6415 72.9358C83.0155 73.5868 83.4379 74.2309 83.8881 74.8403C84.3521 75.4636 84.8715 76.0799 85.4394 76.6617C85.4601 76.6824 85.4809 76.7101 85.5086 76.7309C85.6194 76.8417 85.7233 76.9456 85.8341 77.0495C86.9353 78.1021 88.1611 78.8985 89.47 79.4249C90.1002 79.6811 90.7512 79.875 91.4091 79.9928C92.0532 80.1174 92.7111 80.1797 93.3898 80.1797C93.6391 80.1797 93.8884 80.1797 94.1862 80.152C96.2777 80.0066 98.3069 79.3487 100.211 78.206C102.518 76.8279 104.505 75.0688 106.209 72.8943C106.41 72.9912 106.617 73.0812 106.832 73.1643C106.984 73.2267 107.165 73.289 107.372 73.3583C107.857 73.5175 108.328 73.6283 108.813 73.7045C109.318 73.7807 109.796 73.8223 110.267 73.8223C113.654 73.8223 116.736 71.9039 118.315 68.8221C119.817 65.8858 120.032 62.6447 118.931 59.4383C118.46 58.074 117.996 56.6266 117.788 55.2415C117.248 51.8065 117.331 48.1846 117.504 44.7842L117.629 42.3534C117.636 42.1664 117.657 41.9725 117.67 41.7786C117.712 41.2938 117.754 40.7467 117.754 40.1234V39.9226C117.754 39.8464 117.754 39.7772 117.754 39.701C117.74 39.3755 117.712 39.05 117.67 38.7384C117.67 38.6899 117.657 38.6483 117.65 38.5999C117.483 37.5126 117.116 36.5153 116.569 35.6427L116.521 35.5596C116.479 35.4904 116.438 35.4281 116.389 35.3588C115.704 34.3615 114.755 33.5513 113.647 33.0111C113.017 32.6995 112.331 32.4709 111.611 32.3463C110.987 32.2285 110.371 32.1731 109.741 32.1731C107.58 32.1731 105.516 32.8934 103.778 34.2507C102.185 35.4835 100.966 36.9101 100.135 38.496C100.191 37.7342 100.211 36.9516 100.177 36.1414C100.163 35.8436 100.142 35.5389 100.114 35.248C100.059 34.7217 99.969 34.1953 99.8443 33.7036C99.5881 32.6441 99.1587 31.6676 98.5631 30.8019C98.4108 30.5734 98.2584 30.3656 98.0922 30.1717C97.7459 29.7423 97.3719 29.3753 96.9564 29.0429C96.7833 28.8974 96.5755 28.7381 96.3193 28.5789C96.1046 28.4404 95.883 28.3088 95.6544 28.198C95.3428 28.0387 95.0935 27.9417 94.9757 27.9002C94.394 27.6855 93.8261 27.547 93.2444 27.4916C92.8219 27.4431 92.3995 27.4223 91.9978 27.4223L91.9701 27.4085ZM96.9841 55.1169C97.1295 51.9243 97.7182 48.5655 98.7709 44.9227C98.7432 45.6083 98.7086 46.2316 98.6601 46.8203C98.5285 48.5655 98.2861 50.2483 97.9467 51.8689C97.7182 52.9769 97.4066 54.0365 97.0187 55.0407C97.0118 55.0684 96.998 55.0892 96.991 55.1169H96.9841Z" fill="#FF0000"/>
</g>
<g id="Group_5">
<path id="Vector_9" d="M79.8228 75.5813C79.7051 75.3528 79.5874 75.1312 79.4696 74.9096C79.1234 74.2517 78.7632 73.566 78.4585 72.8735C77.6205 71.0244 77.0388 68.9676 76.5748 66.2182C76.1177 63.4619 75.8199 60.6087 75.6606 57.4923C75.536 54.9784 75.4875 52.4645 75.5221 50.0198C75.5775 45.5668 75.8615 40.8506 76.4432 34.7355C76.5194 33.9737 76.6233 32.9696 76.7479 31.9723C77.0249 29.7493 77.302 27.5262 77.5928 25.3032L77.6898 24.5829C77.8975 23.0386 78.1122 21.4388 78.3616 19.8737C78.5901 18.4886 78.8463 17.0759 79.0956 15.7116C79.2203 15.0398 79.345 14.3611 79.4627 13.6894C79.4627 13.6409 79.4765 13.5855 79.4904 13.5301C79.5181 13.3085 79.532 13.1353 79.5389 12.9622C79.5458 12.8791 79.5389 12.8237 79.5389 12.7683C79.5389 12.6021 79.4973 12.4497 79.4281 12.332C79.3657 12.2143 79.2757 12.1311 79.1649 12.0619L79.1234 12.0411L79.1095 12.0273C79.061 11.9996 79.0125 11.9788 78.9641 11.9649L78.874 11.9442L78.8602 11.9303C78.8602 11.9303 78.8394 11.9303 78.8325 11.9234H78.7979L78.7563 11.9026C78.7355 11.8957 78.7147 11.8957 78.694 11.8888L78.6247 11.8749C78.2646 11.8126 77.8906 11.778 77.5166 11.778C76.6787 11.778 75.8545 11.9511 75.072 12.2835C74.3656 12.5882 73.7769 12.9691 73.3198 13.4262C73.1744 13.5647 73.0428 13.724 72.9458 13.8417C72.8558 13.9594 72.7589 14.091 72.6758 14.2295C72.4264 14.6381 72.2394 15.0952 72.1148 15.6008C72.0732 15.76 72.0386 15.9124 72.004 16.0717L71.9139 16.4387C71.7547 17.1659 71.5954 17.9415 71.4084 18.9526C70.8751 21.7713 70.3903 24.8115 69.9263 28.2465C69.8294 28.9598 69.7394 29.6731 69.6493 30.3864C69.5801 30.9266 69.5177 31.4806 69.4554 32.0208L69.4346 32.1939C69.3585 32.8172 69.2892 33.4405 69.2269 34.0568C69.2269 34.0984 69.2199 34.1469 69.213 34.1884C69.213 34.23 69.2061 34.2646 69.1992 34.3062C69.1922 34.3893 69.1853 34.4724 69.1715 34.5624C69.1645 34.6386 69.1576 34.7217 69.1507 34.7979C69.1161 35.1303 69.0814 35.4558 69.0468 35.7743C69.0122 36.0998 68.9776 36.4253 68.9429 36.7508L68.8875 37.3672C68.846 37.7827 68.8113 38.1982 68.7767 38.6068C68.7144 39.2855 68.659 39.9434 68.6036 40.6152C68.5828 40.8437 68.562 41.0722 68.5482 41.2938L68.5205 41.6193C68.4581 42.4227 68.3958 43.2399 68.3473 44.0501C68.3266 44.5903 68.3058 45.1374 68.2781 45.6845L68.2504 46.3009C68.1881 47.7067 68.1257 49.1611 68.1049 50.5877C68.0911 51.5088 68.0842 52.4298 68.0842 53.3578C68.0842 54.9576 68.1119 56.5227 68.1326 57.707C68.1326 58.1017 68.1465 58.4826 68.1603 58.8704C68.2019 59.9923 68.2642 61.1419 68.3612 62.3747C68.3958 62.8179 68.4374 63.2472 68.4789 63.6835C68.5967 64.8955 68.749 66.1836 68.9291 67.6102C68.9845 68.0604 69.0468 68.5036 69.1161 68.9538C69.3308 70.3596 69.6078 71.6962 69.9402 72.9358C70.4596 74.9026 71.1175 76.5855 71.9555 78.0675C72.0386 78.206 72.1217 78.3515 72.2187 78.483C72.3156 78.6285 72.4126 78.7601 72.5165 78.8847C72.6134 78.9955 72.7104 79.1202 72.8143 79.2379L72.8489 79.2725C72.9251 79.3487 73.0012 79.4318 73.0844 79.508L73.1121 79.5357L73.2229 79.6396C73.299 79.7158 73.3821 79.785 73.4653 79.8543C73.9085 80.2144 74.3725 80.4845 74.8573 80.6438C75.1135 80.7338 75.3698 80.7892 75.6468 80.8169C75.7922 80.8377 75.9238 80.8515 76.1039 80.8515C76.3324 80.8515 76.5679 80.8307 76.8172 80.7961C79.1995 80.4291 80.3561 79.1687 80.2661 77.0564C80.2522 76.5855 80.1137 76.1215 79.8367 75.5882L79.8228 75.5813Z" fill="#FF0000"/>
<path id="Vector_10" d="M77.5236 11.778C77.8976 11.778 78.2715 11.8126 78.6317 11.8749L78.7009 11.8888C78.7009 11.8888 78.7425 11.8888 78.7633 11.9026L78.8048 11.9165H78.8394C78.8394 11.9165 78.8602 11.9303 78.8671 11.9303L78.881 11.9442L78.971 11.9649C79.0264 11.9788 79.0749 11.9996 79.1165 12.0273L79.1303 12.0411L79.1719 12.0619C79.2896 12.1242 79.3727 12.2143 79.435 12.332C79.5043 12.4497 79.5389 12.6021 79.5458 12.7683C79.5458 12.8237 79.5458 12.886 79.5458 12.9622C79.5458 13.1284 79.5251 13.3085 79.4974 13.5231C79.4835 13.5855 79.4766 13.6409 79.4697 13.6824C79.3519 14.3542 79.2273 15.0329 79.1026 15.7046C78.8533 17.0689 78.597 18.4748 78.3685 19.8668C78.1123 21.4319 77.9045 23.0317 77.6967 24.576L77.5998 25.2963C77.3089 27.5193 77.0319 29.7423 76.7549 31.9654C76.6233 32.9626 76.5263 33.9668 76.4501 34.7286C75.8684 40.8506 75.5845 45.5599 75.5291 50.0129C75.4944 52.4575 75.5429 54.9784 75.6676 57.4854C75.8199 60.6018 76.1247 63.455 76.5817 66.2113C77.0457 68.9607 77.6275 71.0175 78.4655 72.8666C78.7771 73.5591 79.1303 74.2447 79.4766 74.9026C79.5943 75.1243 79.712 75.3528 79.8298 75.5744C80.1068 76.1077 80.2453 76.5716 80.2592 77.0426C80.3561 79.1548 79.1926 80.4152 76.8103 80.7823C76.554 80.8238 76.3186 80.8377 76.0969 80.8377C75.9169 80.8377 75.7853 80.8307 75.6399 80.803C75.3698 80.7753 75.1135 80.7199 74.8504 80.6299C74.3725 80.4706 73.9016 80.2075 73.4584 79.8404C73.3752 79.7712 73.2921 79.7019 73.216 79.6257L73.1052 79.5219L73.0774 79.4942C73.0013 79.418 72.9182 79.3418 72.842 79.2587L72.8074 79.2241C72.7035 79.1063 72.6065 78.9886 72.5096 78.8709C72.4126 78.7462 72.3156 78.6146 72.2118 78.4692C72.1148 78.3307 72.0317 78.1853 71.9486 78.0537C71.1106 76.5647 70.4527 74.8888 69.9333 72.922C69.6009 71.6823 69.3239 70.3457 69.1092 68.9399C69.0399 68.4898 68.9776 68.0465 68.9222 67.5964C68.7421 66.1628 68.5967 64.8747 68.472 63.6697C68.4305 63.2334 68.3889 62.804 68.3543 62.3608C68.2573 61.1281 68.195 59.9785 68.1535 58.8566C68.1396 58.4688 68.1327 58.0879 68.1257 57.6931C68.105 56.5089 68.0773 54.9437 68.0773 53.344C68.0773 52.416 68.0773 51.488 68.098 50.5738C68.1188 49.1472 68.1812 47.6929 68.2435 46.287L68.2712 45.6707C68.2989 45.1305 68.3197 44.5834 68.3404 44.0363C68.3889 43.226 68.4512 42.4158 68.5136 41.6055L68.5413 41.28C68.5551 41.0515 68.5759 40.8299 68.5967 40.6013C68.6521 39.9296 68.7075 39.2647 68.7698 38.593C68.8044 38.1774 68.8391 37.7619 68.8806 37.3533L68.936 36.737C68.9707 36.4115 69.0053 36.086 69.0399 35.7605C69.0745 35.435 69.1022 35.1164 69.1438 34.784C69.1438 34.7009 69.1576 34.6247 69.1646 34.5486C69.1715 34.4654 69.1853 34.3823 69.1923 34.2923C69.1923 34.2577 69.1992 34.2161 69.2061 34.1746C69.2061 34.1261 69.22 34.0776 69.22 34.043C69.2823 33.4197 69.3516 32.8034 69.4277 32.1801L69.4485 32.0069C69.5108 31.4598 69.5732 30.9127 69.6424 30.3726C69.7325 29.6592 69.8225 28.9459 69.9194 28.2326C70.3765 24.7976 70.8613 21.7574 71.4015 18.9388C71.5885 17.9277 71.7478 17.152 71.907 16.4249L71.9971 16.0578C72.0317 15.8985 72.0733 15.7462 72.1079 15.5869C72.2325 15.0883 72.4195 14.6243 72.6688 14.2157C72.752 14.0772 72.8489 13.9456 72.9389 13.8279C73.0359 13.7101 73.1675 13.5508 73.3129 13.4123C73.77 12.9622 74.3656 12.5744 75.0651 12.2697C75.8546 11.9372 76.6787 11.7641 77.5097 11.7641M77.5097 6.22382C75.9238 6.22382 74.3656 6.54238 72.8905 7.17259C71.5469 7.7474 70.3973 8.50919 69.4485 9.43718C69.0953 9.77653 68.8252 10.102 68.6452 10.3167C68.5967 10.379 68.5413 10.4414 68.4928 10.5106C68.3612 10.6907 68.1604 10.9608 67.9526 11.2932C67.9457 11.307 67.9388 11.314 67.9318 11.3278C67.3916 12.2212 66.983 13.2046 66.7268 14.2503C66.6853 14.4165 66.6437 14.5966 66.6021 14.7766L66.519 15.1298C66.519 15.1298 66.5052 15.1852 66.4983 15.206C66.3182 16.0024 66.152 16.8335 65.9512 17.9069C65.3971 20.8086 64.8985 23.9527 64.4276 27.4916C64.3306 28.2118 64.2406 28.939 64.1436 29.6731C64.0744 30.234 64.0051 30.8019 63.9428 31.3698L63.922 31.5291C63.8389 32.187 63.7696 32.838 63.7004 33.4959C63.7004 33.5028 63.7004 33.5097 63.7004 33.5167C63.6865 33.6413 63.6727 33.7383 63.6658 33.8352L63.6519 33.9668C63.645 34.0638 63.6311 34.1607 63.6242 34.2577C63.5896 34.5832 63.5549 34.8948 63.5272 35.2134C63.4926 35.532 63.4649 35.8436 63.4303 36.1622C63.4303 36.1899 63.4303 36.2176 63.4234 36.2453L63.368 36.8616C63.3264 37.2841 63.2918 37.7065 63.2571 38.1359C63.1948 38.8007 63.1394 39.4517 63.084 40.1096C63.0563 40.3728 63.0355 40.629 63.0217 40.8853L63.0009 41.1969C62.9386 42.0418 62.8693 42.8867 62.8208 43.7247C62.8208 43.7662 62.8208 43.8078 62.8208 43.8493C62.8001 44.3687 62.7793 44.8881 62.7585 45.4075C62.7585 45.4214 62.7585 45.4421 62.7585 45.456L62.7308 46.0724C62.6685 47.5198 62.6062 49.0087 62.5785 50.4977C62.5646 51.4534 62.5577 52.4091 62.5577 53.3648C62.5577 55.013 62.5854 56.6128 62.6062 57.8178C62.6131 58.2333 62.62 58.6557 62.6339 59.0782C62.6754 60.2763 62.7447 61.4951 62.8485 62.811C62.8832 63.2888 62.9317 63.7528 62.9732 64.2237C63.1048 65.5118 63.2571 66.8415 63.4441 68.3235C63.5065 68.8083 63.5757 69.3139 63.6519 69.8125C63.9012 71.4123 64.2198 72.9497 64.6007 74.3763C65.2378 76.7933 66.0689 78.8986 67.1423 80.7961C67.1631 80.8307 67.1839 80.8654 67.2047 80.9C67.3155 81.087 67.4678 81.3432 67.6756 81.641C67.828 81.8696 67.9942 82.0981 68.1811 82.3336C68.2158 82.382 68.2573 82.4236 68.292 82.4721C68.4235 82.6313 68.5482 82.7768 68.6729 82.9153C68.7144 82.9638 68.756 83.0053 68.7975 83.0538L68.8321 83.0884C68.9499 83.2131 69.0745 83.3377 69.2061 83.4624L69.2269 83.4762C69.2823 83.5316 69.3446 83.587 69.4 83.6424C69.6009 83.8364 69.774 83.9818 69.8779 84.0718C69.8987 84.0926 69.9333 84.1134 69.9541 84.1341C70.9098 84.9167 71.9555 85.5054 73.0705 85.8863C73.68 86.094 74.3102 86.2395 74.9543 86.3087C75.3282 86.3572 75.6953 86.3849 76.1108 86.3849C76.6233 86.3849 77.1358 86.3433 77.669 86.2602C82.8285 85.4569 86.0211 81.7518 85.8064 76.814C85.758 75.519 85.4117 74.2794 84.7538 73.0189C84.643 72.7973 84.5183 72.5619 84.3937 72.3264C84.0751 71.717 83.7704 71.1352 83.528 70.602C82.8839 69.1823 82.4338 67.5479 82.0528 65.2833C81.6304 62.7556 81.3534 60.1031 81.2149 57.2014C81.0971 54.8052 81.0487 52.4091 81.0833 50.0821C81.1387 45.7815 81.4157 41.2038 81.9836 35.248C82.0528 34.5416 82.1498 33.5929 82.2675 32.6718C82.5446 30.4349 82.8216 28.2257 83.1124 26.0165L83.2094 25.317C83.4102 23.8004 83.618 22.2491 83.8604 20.7532C84.082 19.4305 84.3313 18.0454 84.5737 16.7088C84.6984 16.0232 84.823 15.3445 84.9477 14.6658C84.9546 14.6243 84.9615 14.5827 84.9685 14.5481C84.9892 14.4511 85.0031 14.3542 85.0169 14.2572C85.0654 13.904 85.0931 13.5924 85.107 13.2877C85.1208 13.0522 85.1208 12.8722 85.1208 12.7821C85.1208 12.7267 85.1208 12.6575 85.1208 12.609C85.0862 11.5494 84.8023 10.5245 84.2967 9.62417C83.7842 8.71002 83.057 7.94823 82.1706 7.3942C82.1083 7.35265 82.0459 7.3111 81.9767 7.27647C81.6027 7.05486 81.201 6.86788 80.7786 6.72937C80.7578 6.72937 80.7439 6.71552 80.7232 6.70859C80.5362 6.63934 80.3492 6.59086 80.1622 6.54238C80.0237 6.50776 79.8852 6.47313 79.7397 6.45235H79.7259C79.6843 6.4385 79.6359 6.43158 79.5943 6.42465C78.9156 6.30692 78.2231 6.24459 77.5305 6.24459L77.5097 6.22382Z" fill="#FF0000"/>
</g>
<g id="Group_6">
<path id="Vector_11" d="M61.789 20.6009C60.5839 18.731 59.0396 17.0966 57.2112 15.7531C55.3414 14.3819 53.2845 13.2254 50.9229 12.235C46.4906 10.379 41.5874 9.20864 35.9362 8.68232C34.5858 8.55073 33.1383 8.49533 31.5039 8.49533C31.0191 8.49533 30.5413 8.50226 30.0565 8.50918C28.1936 8.54381 26.3514 8.74464 24.5923 9.09784C22.5008 9.52721 20.4994 10.3513 18.6364 11.5702C17.7638 12.1381 16.9812 12.8375 16.3233 13.6478C15.7901 14.3196 15.2083 15.4692 15.1321 16.0855C15.0975 16.3556 15.0213 16.9096 15.1806 17.2144C15.513 17.8515 15.9355 18.2047 16.5103 18.3086C16.7873 18.357 17.1128 18.4124 17.6669 18.4194C18.3663 18.4194 19.1281 18.3086 19.9038 18.1008C21.7944 17.5745 23.6782 17.3806 25.9289 17.2421C29.4817 17.0205 33.2353 17.1659 37.0235 17.6714C39.4751 17.9969 41.6705 18.4609 43.7066 19.0842C46.0405 19.7906 48.1527 20.8017 49.988 22.0967C50.9298 22.7477 51.6501 23.461 52.1972 24.2644C53.3399 25.9334 53.7623 27.7548 53.4646 29.6731V29.7631C53.4299 29.9086 53.4092 30.054 53.4022 30.2063C53.3399 31.1482 53.0906 32.0831 52.6266 33.1704C51.8994 34.8602 50.9091 36.453 49.6833 37.8935C48.8037 38.9254 47.8203 39.9018 46.6776 40.8853C45.4102 41.9795 44.2883 42.8105 43.1595 43.503C41.4004 44.5765 39.4336 45.5391 37.1412 46.4394C36.9889 46.4948 36.8642 46.5502 36.5872 46.6125C36.1301 46.7164 35.6869 46.4879 35.396 46.1001C35.2298 45.8715 35.1121 45.5876 35.0913 45.3106C35.0567 44.9643 35.029 44.5626 35.0498 44.1471C35.1606 42.298 35.2921 40.1165 35.493 37.942C35.6453 36.0929 35.8046 34.2369 35.9639 32.3878C36.0332 31.5845 36.0124 30.885 35.9085 30.234C35.7769 29.4307 35.5553 28.385 35.029 27.4916C34.4957 26.5844 33.7685 26.0581 32.8059 25.8711C32.6328 25.8364 32.4319 25.8295 32.2034 25.8295C32.1272 25.8295 32.051 25.8226 31.9748 25.8226C31.123 25.8295 30.4997 26.0996 30.0773 26.3905C29.9111 26.5013 29.7587 26.6329 29.6271 26.7783C29.5509 26.8683 29.4817 26.9376 29.4332 27.0068L29.3085 27.1938C29.1977 27.3669 29.1146 27.5609 29.0385 27.7686C29.0108 27.8656 28.9761 27.9487 28.9346 28.0456C28.9069 28.1149 28.8792 28.198 28.8445 28.2672C28.6091 28.9598 28.4152 29.7285 28.242 30.7257C27.9996 32.1177 27.7642 33.5097 27.5356 34.9087L27.404 35.7259C27.2517 36.6469 27.0924 37.6096 26.9885 38.5445C26.6076 41.7994 26.3514 44.4449 26.199 46.8549C26.1782 47.2012 26.1505 47.5475 26.1228 47.9006L26.0674 48.6694C26.0259 49.2857 25.7073 49.7843 25.174 50.0821C24.6962 50.3453 24.1768 50.5946 23.5535 50.6569C23.1795 50.6985 22.8125 50.747 22.4385 50.7885C21.9468 50.8439 21.4551 50.9062 20.9634 50.9547C19.232 51.1279 17.5145 51.2941 15.7901 51.4603C14.3149 51.5988 12.8467 51.7442 11.3716 51.8758L9.36323 52.0628C8.78149 52.1182 8.42136 52.1874 7.92965 52.2982C7.73574 52.3398 7.52105 52.4714 7.35484 52.6653C6.69692 53.3994 6.39913 54.1265 6.34372 54.8468C6.29525 55.6016 6.3368 56.3496 6.47531 57.1183C6.68307 58.2679 7.20941 59.1751 8.07509 59.8884C8.26208 60.0477 8.44214 60.117 8.65683 60.1239H9.01003C9.37015 60.1447 9.73027 60.1516 10.0904 60.1447L11.6902 60.0893C13.4631 60.027 15.2429 59.9577 17.0159 59.8746C18.5879 59.7984 20.1669 59.6945 21.7806 59.5907L24.0313 59.4452C25.0355 59.4452 25.3333 60.0685 25.4649 60.5256C25.5688 60.8441 25.5827 61.1766 25.5896 61.4674C25.5896 61.6683 25.5827 61.8552 25.5757 62.0492C25.5757 62.25 25.5688 62.4301 25.5757 62.6101C25.645 65.872 25.7696 68.5036 26.012 70.9067C26.2544 73.4345 26.6353 75.6229 27.1547 77.6035C27.5841 79.2241 28.0827 80.4706 28.7476 81.5441C29.0454 82.0011 29.2808 82.3266 29.5302 82.5829C30.1188 83.22 30.8599 83.5039 31.7532 83.4347C32.8959 83.3585 34.0802 83.1577 35.2298 82.5205C35.7631 82.2227 36.3102 81.6756 36.4695 81.3986C36.8642 80.713 36.975 80.1105 36.9196 79.1756C36.885 78.4623 36.7742 77.7213 36.6842 77.098C36.4833 75.7337 36.0539 74.4248 35.6038 73.0882C35.2644 72.0909 35.0775 71.2183 34.9597 70.4912C34.8004 69.5216 34.6966 68.3582 34.6204 67.1739C34.5788 66.5229 34.5511 65.865 34.5234 65.2071C34.5096 64.6392 34.4888 64.0644 34.4542 63.4966C34.3295 61.4674 34.4611 59.4244 34.5996 57.6723C34.6135 57.5338 34.6204 57.423 34.6412 57.3053C34.8281 56.315 35.4307 55.9479 35.9016 55.8094C35.9708 55.7886 36.047 55.7609 36.1163 55.7332L36.2548 55.6778C40.043 54.1819 43.4434 52.5199 46.643 50.5946C50.2165 48.4477 53.2222 46.2386 55.8192 43.8355C58.1462 41.6955 59.9399 39.4933 61.325 37.104C63.0355 34.1607 63.8735 31.259 63.8874 28.2395C63.8943 25.3101 63.1948 22.8031 61.7474 20.5662L61.789 20.6009Z" fill="#FF0000"/>
<path id="Vector_12" d="M31.5039 8.50225C33.1383 8.50225 34.5857 8.55765 35.9362 8.68923C41.5874 9.21556 46.4906 10.3859 50.9229 12.2419C53.2845 13.2323 55.3413 14.3888 57.2112 15.76C59.0395 17.1035 60.5839 18.7379 61.7889 20.6078C63.2363 22.8447 63.9358 25.3517 63.9289 28.2811C63.915 31.3005 63.0771 34.2023 61.3665 37.1455C59.9814 39.5348 58.1808 41.7371 55.8607 43.877C53.2637 46.2801 50.258 48.4893 46.6845 50.6362C43.4849 52.5614 40.0845 54.2235 36.2963 55.7194L36.1578 55.7748C36.0885 55.8025 36.0124 55.8302 35.9431 55.851C35.4653 55.9895 34.8697 56.3565 34.6827 57.3468C34.6619 57.4646 34.655 57.5754 34.6411 57.7139C34.5026 59.466 34.371 61.509 34.4957 63.5381C34.5303 64.106 34.5511 64.6808 34.5649 65.2487C34.5857 65.9066 34.6134 66.5645 34.6619 67.2155C34.7381 68.3997 34.842 69.5563 35.0012 70.5327C35.119 71.2668 35.306 72.1325 35.6453 73.1297C36.1024 74.4663 36.5248 75.7752 36.7257 77.1395C36.8226 77.7697 36.9265 78.5038 36.9611 79.2171C37.0096 80.159 36.9057 80.7546 36.511 81.4402C36.3517 81.7103 35.8046 82.2643 35.2713 82.5621C34.1217 83.1992 32.9305 83.4 31.7948 83.4762C31.7047 83.4831 31.6147 83.4901 31.5316 83.4901C30.7559 83.4901 30.1049 83.1992 29.5717 82.6244C29.3293 82.3612 29.0869 82.0427 28.7891 81.5856C28.1243 80.5122 27.6187 79.2587 27.1963 77.6451C26.6768 75.6575 26.3029 73.4691 26.0536 70.9482C25.8181 68.5451 25.6934 65.9135 25.6172 62.6517C25.6103 62.4716 25.6172 62.2915 25.6172 62.0907C25.6242 61.8968 25.6311 61.7098 25.6311 61.509C25.6242 61.2181 25.6103 60.8857 25.5064 60.5671C25.3679 60.1031 25.0701 59.4868 24.0729 59.4868L21.8221 59.6322C20.2015 59.7361 18.6295 59.833 17.0574 59.9161C15.2845 60.0062 13.5046 60.0685 11.7317 60.1308L10.1319 60.1862C10.035 60.1862 9.93801 60.1862 9.84105 60.1862C9.57789 60.1862 9.31472 60.1862 9.05155 60.1724H8.69835C8.48366 60.1585 8.3036 60.0823 8.11661 59.93C7.25093 59.2167 6.7246 58.3025 6.51683 57.1598C6.37832 56.3842 6.33677 55.6432 6.38525 54.8883C6.43373 54.1681 6.73845 53.4409 7.39637 52.7068C7.56258 52.5199 7.77727 52.3883 7.97118 52.3398C8.46289 52.229 8.82301 52.1667 9.40475 52.1043L11.4131 51.9173C12.8883 51.7788 14.3565 51.6334 15.8316 51.5018C17.556 51.3356 19.2735 51.1694 21.0049 50.9963C21.4966 50.9478 21.9883 50.8855 22.48 50.8301C22.8471 50.7885 23.2141 50.74 23.595 50.6985C24.2183 50.6362 24.7377 50.3799 25.2156 50.1237C25.7488 49.819 26.0674 49.3203 26.109 48.7109L26.1644 47.9422C26.1921 47.589 26.2198 47.2427 26.2405 46.8965C26.3929 44.4864 26.6422 41.8409 27.03 38.586C27.1408 37.658 27.3001 36.6954 27.4456 35.7674L27.5772 34.9502C27.8057 33.5582 28.0412 32.1662 28.2836 30.7673C28.4567 29.7631 28.6437 29.0013 28.8861 28.3088C28.9138 28.2395 28.9415 28.1564 28.9761 28.0872C29.0107 27.9902 29.0454 27.9071 29.08 27.8102C29.1492 27.6024 29.2393 27.4085 29.3501 27.2354L29.4747 27.0484C29.5232 26.9791 29.5925 26.9029 29.6686 26.8198C29.8002 26.6744 29.9526 26.5359 30.1188 26.432C30.5482 26.1342 31.1645 25.8711 32.0164 25.8641C32.0926 25.8641 32.1687 25.8711 32.2449 25.8711C32.4665 25.8711 32.6743 25.878 32.8474 25.9126C33.8101 26.0927 34.5372 26.619 35.0705 27.5331C35.5968 28.4265 35.8184 29.4722 35.95 30.2756C36.0608 30.9266 36.0816 31.626 36.0054 32.4294C35.8462 34.2784 35.6869 36.1344 35.5345 37.9835C35.3406 40.1581 35.2021 42.3396 35.0913 44.1886C35.0705 44.5972 35.0982 45.0058 35.1328 45.3521C35.1536 45.6291 35.2713 45.9061 35.4375 46.1416C35.6799 46.4671 36.0331 46.6818 36.4071 46.6818C36.4764 46.6818 36.5525 46.6749 36.6287 46.661C36.9127 46.5987 37.0304 46.5433 37.1828 46.4879C39.482 45.5876 41.4419 44.6249 43.201 43.5515C44.3298 42.859 45.4448 42.0279 46.7191 40.9337C47.8618 39.9503 48.8452 38.9738 49.7248 37.942C50.9506 36.5084 51.9409 34.9087 52.6681 33.2189C53.1321 32.1316 53.3745 31.1897 53.4437 30.2548C53.4507 30.1025 53.4714 29.957 53.4991 29.8116V29.7216C53.8039 27.8032 53.3745 25.9819 52.2387 24.3129C51.6916 23.5095 50.9714 22.7962 50.0295 22.1452C48.1942 20.8502 46.082 19.8391 43.7481 19.1327C41.712 18.5025 39.5166 18.0454 37.065 17.7199C34.4334 17.3667 31.8155 17.1936 29.267 17.1936C28.152 17.1936 27.0508 17.2282 25.9704 17.2975C23.7197 17.436 21.8359 17.6299 19.9453 18.1562C19.1627 18.364 18.4078 18.4748 17.7084 18.4748C17.1543 18.4678 16.8288 18.4194 16.5518 18.364C15.9839 18.2532 15.5546 17.9 15.2221 17.2698C15.0628 16.965 15.139 16.411 15.1737 16.1409C15.2498 15.5246 15.8316 14.375 16.3648 13.7032C17.0228 12.8929 17.7984 12.1935 18.6779 11.6256C20.5409 10.4136 22.5423 9.5826 24.6338 9.15323C26.3929 8.80004 28.2351 8.5992 30.098 8.56458C30.5828 8.55765 31.0607 8.55072 31.5454 8.55072M31.5454 3.01043C31.0468 3.01043 30.5482 3.01736 30.0495 3.02429C30.0426 3.02429 30.0011 3.02429 29.9941 3.02429C27.8126 3.06584 25.6449 3.3013 23.5465 3.72375C20.7556 4.29163 18.1101 5.38583 15.6584 6.97867C14.2941 7.87204 13.0891 8.9524 12.071 10.2059C12.0572 10.2197 12.0503 10.2336 12.0364 10.2474C11.1084 11.4109 9.93801 13.4747 9.68177 15.4345C9.59174 16.1409 9.35627 17.99 10.3189 19.8321C11.4339 21.9652 13.283 23.3779 15.5199 23.8004C16.0463 23.8973 16.6834 23.9943 17.6391 24.0081C17.6599 24.0081 17.6876 24.0081 17.7084 24.0081C18.8926 24.0081 20.1323 23.835 21.3858 23.5026C21.3996 23.5026 21.4204 23.4957 21.4343 23.4887C22.7224 23.1286 24.0867 22.9693 25.8181 22.8516C25.735 22.9347 25.6588 23.0178 25.5757 23.1078C25.3818 23.3225 25.1671 23.5649 24.9386 23.8904C24.9039 23.9389 24.8693 23.9874 24.8416 24.0358L24.7169 24.2228C24.7169 24.2228 24.6754 24.2851 24.6546 24.3198C24.3291 24.8392 24.0659 25.4001 23.8513 26.0234C23.8513 26.0303 23.8513 26.0373 23.8443 26.0511L23.8166 26.1134L23.7682 26.245L23.7543 26.2866C23.7197 26.3697 23.692 26.4459 23.6643 26.5359C23.3249 27.5193 23.0687 28.5719 22.8471 29.8531C22.6047 31.2451 22.3692 32.6579 22.1337 34.0707C22.1337 34.0845 22.1337 34.0915 22.1337 34.1053L22.0022 34.9225V34.9779C21.8359 35.9405 21.6697 36.9378 21.552 37.9697C21.2127 40.8714 20.9703 43.2883 20.811 45.4698C20.6932 45.4837 20.5824 45.4975 20.4647 45.5045C18.7541 45.6776 17.0435 45.8438 15.326 46.0031C14.6058 46.0723 13.8647 46.1416 13.1237 46.2108C12.3896 46.2801 11.6555 46.3494 10.9214 46.4186L8.91304 46.6056C8.01273 46.6956 7.43792 46.7995 6.78 46.9519C5.45724 47.2497 4.21758 47.9837 3.28957 49.0295C1.856 50.6362 1.02494 52.5337 0.886434 54.5144C0.803329 55.7401 0.872584 56.9244 1.08727 58.1432C1.5305 60.581 2.74246 62.6655 4.59848 64.2029C5.72733 65.1517 7.09165 65.6711 8.54599 65.7196C8.56677 65.7196 8.59447 65.7196 8.61525 65.7196H8.91997C9.23854 65.7404 9.55711 65.7473 9.87568 65.7473C10.0073 65.7473 10.1458 65.7473 10.2774 65.7473C10.3051 65.7473 10.3397 65.7473 10.3674 65.7473L11.9672 65.6919C13.7332 65.6296 15.5546 65.5603 17.369 65.4703C18.3178 65.4218 19.2458 65.3664 20.1946 65.311C20.2777 67.7349 20.4024 69.7155 20.5824 71.523C20.8525 74.314 21.275 76.7933 21.8775 79.0786C22.4454 81.2463 23.1587 82.9776 24.1213 84.5289C24.1421 84.5635 24.1698 84.6051 24.1906 84.6397C24.523 85.1522 24.9801 85.817 25.5688 86.4472C27.1478 88.1301 29.2739 89.065 31.5731 89.065C31.7948 89.065 32.0233 89.0581 32.2449 89.0373C33.6716 88.9334 35.8115 88.6564 38.0069 87.4375C39.3504 86.6896 40.6593 85.443 41.345 84.2519C42.5431 82.1881 42.6054 80.339 42.5361 78.954C42.4877 77.9706 42.3492 77.0356 42.2453 76.3569C41.9752 74.5564 41.4696 72.9774 40.9294 71.3845C40.7424 70.8374 40.6109 70.2973 40.5139 69.6809C40.41 69.0299 40.3131 68.1158 40.2369 66.8831C40.2023 66.3706 40.1746 65.7958 40.1538 65.1309C40.133 64.4315 40.1122 63.8082 40.0707 63.2334C40.0153 62.2638 40.0291 61.2389 40.0707 60.2209C43.4919 58.7873 46.6222 57.2083 49.5932 55.4216C53.4991 53.0808 56.7957 50.6431 59.6697 47.9837C62.3914 45.4837 64.5314 42.859 66.2074 39.9711C68.4166 36.1691 69.497 32.367 69.5177 28.3503C69.5247 24.3683 68.5135 20.7671 66.4982 17.6437C64.9261 15.2129 62.9247 13.0868 60.5493 11.3416C58.3054 9.69341 55.8746 8.33604 53.1182 7.1795C48.1319 5.09497 42.7024 3.79993 36.5041 3.2182C35.0289 3.07969 33.4084 3.00351 31.5593 3.00351L31.5454 3.01043ZM41.0749 38.3367C41.2203 36.5361 41.3796 34.7286 41.532 32.9211C41.6428 31.6814 41.6081 30.518 41.4211 29.3822C41.2342 28.2257 40.8602 26.4597 39.8491 24.7422C39.6275 24.3683 39.3851 24.0081 39.1288 23.6757C40.1884 23.8904 41.1857 24.1397 42.1275 24.4306C43.9282 24.9777 45.5072 25.7326 46.8507 26.6744C46.8646 26.6813 46.8784 26.6952 46.8923 26.7021C47.2524 26.9514 47.5155 27.1938 47.6818 27.4431C48.0765 28.0248 48.1181 28.4404 48.0488 28.8767C48.0419 28.9321 48.035 28.9875 48.028 29.0429C47.9796 29.3337 47.9519 29.6108 47.9311 29.8878C47.9172 30.0817 47.8549 30.4072 47.5917 31.0305C47.0723 32.2216 46.3798 33.3366 45.5279 34.3339C44.8423 35.1441 44.0528 35.9198 43.1248 36.7231C42.3838 37.3602 41.7189 37.8796 41.0818 38.3298L41.0749 38.3367Z" fill="#FF0000"/>
</g>
</g>
<g id="Group_7">
<path id="Vector_13" d="M146.231 60.2554C146.203 59.8676 146.058 59.2236 146.058 59.2236C146.003 58.9327 145.933 58.6765 145.836 58.4271C145.587 57.7346 145.192 57.1252 144.652 56.5919C144.631 56.5711 144.611 56.5504 144.59 56.5296L144.576 56.5157L144.562 56.5019C144.437 56.3842 144.32 56.2734 144.195 56.1833C142.789 55.0614 141.106 54.2512 139.188 53.7802C138.045 53.4963 136.868 53.2539 135.725 53.0184L134.811 52.8315H134.769C134.292 52.7206 133.814 52.6168 133.343 52.5198C133.024 52.4506 132.713 52.3675 132.401 52.2843C132.186 52.2289 131.965 52.1597 131.75 52.0904L131.494 52.0143L131.244 51.9381C131.168 51.9104 131.085 51.8896 131.009 51.8619C130.863 51.8134 130.69 51.7511 130.531 51.6818C129.755 51.3979 129.021 51.0309 128.343 50.6015C127.56 50.1236 127.075 49.3896 126.944 48.4893C126.771 47.3673 126.958 46.2731 127.498 45.2343C128.675 42.942 130.496 41.1276 132.893 39.8464C133.28 39.6456 133.634 39.5001 133.973 39.417C134.333 39.327 134.638 39.2854 134.922 39.2854C135.871 39.2854 136.612 39.7425 137.18 40.6844C137.581 41.3423 137.997 42.0487 138.516 42.9836C138.53 43.0113 138.544 43.0321 138.551 43.0459C138.606 43.1498 138.675 43.2468 138.752 43.3299C138.828 43.406 138.911 43.4684 139.008 43.5307C139.195 43.6346 139.423 43.69 139.7 43.69H139.79C141.64 43.6069 142.748 42.7551 143.191 41.086C143.232 40.9475 143.274 40.809 143.302 40.6705C143.717 39.0084 143.627 37.284 143.011 35.241C142.983 35.1233 142.948 35.0194 142.914 34.9155C142.845 34.6939 142.761 34.4723 142.664 34.2507C142.387 33.5859 142.013 33.0041 141.563 32.5124C141.501 32.4432 141.432 32.367 141.369 32.3047L141.217 32.18C140.843 31.8476 140.441 31.5775 139.998 31.3559C139.728 31.2174 139.423 31.1066 139.091 31.0166H139.077L139.029 31.0027C138.911 30.975 138.8 30.9473 138.689 30.9265H138.655C138.558 30.8919 138.461 30.885 138.336 30.8711C138.211 30.8504 138.094 30.8365 137.976 30.8296C137.81 30.8157 137.65 30.8088 137.484 30.8088C137.145 30.8088 136.812 30.8296 136.494 30.8781C134.569 31.1274 132.823 31.6883 131.307 32.5471C126.397 35.2895 122.643 39.327 120.143 44.5487C118.827 47.2773 118.273 49.6389 118.405 51.9796C118.418 52.1666 118.432 52.3536 118.453 52.5337C118.474 52.7068 118.508 52.8799 118.543 53.0461V53.0946C118.585 53.2608 118.626 53.427 118.675 53.5863C118.751 53.8356 118.848 54.078 118.945 54.2996C119.063 54.542 119.187 54.7567 119.319 54.9575C119.367 55.0268 119.402 55.0891 119.45 55.1445L119.471 55.1653L119.485 55.1861C119.527 55.2484 119.568 55.3038 119.617 55.3592C119.679 55.4354 119.741 55.4977 119.797 55.567C119.859 55.6293 119.914 55.6916 119.977 55.7609L120.081 55.8578C120.178 55.9617 120.268 56.0379 120.351 56.1072C120.932 56.585 121.542 56.9797 122.172 57.2983C122.574 57.5199 122.962 57.6931 123.37 57.8454C123.973 58.0809 124.603 58.2748 125.295 58.4271C126.847 58.7803 128.447 59.0781 129.991 59.3621C130.649 59.4867 131.3 59.6114 131.951 59.736C133.405 60.02 134.576 60.4701 135.545 61.128C136.411 61.7167 136.854 62.5408 136.833 63.5104C136.826 63.6489 136.812 63.8428 136.771 64.0505C136.743 64.196 136.702 64.3553 136.639 64.5284C136.632 64.5769 136.619 64.6184 136.598 64.6669C136.542 64.8262 136.466 65.0062 136.404 65.1517C136.245 65.4841 136.078 65.7819 135.884 66.0589C135.801 66.1766 135.697 66.3151 135.566 66.4675C135.441 66.6129 135.323 66.7376 135.206 66.8415C135.102 66.9592 134.97 67.0769 134.825 67.1877C134.569 67.4024 134.278 67.6033 133.973 67.7764C133.523 68.0396 133.059 68.2681 132.553 68.4758C131.134 69.0714 129.658 69.3761 128.176 69.3761C127.248 69.3761 126.341 69.2653 125.399 69.0368C124.291 68.7667 123.218 68.3304 122.179 67.908C121.715 67.721 121.258 67.534 120.794 67.3609C120.718 67.3332 120.648 67.3055 120.579 67.2778C120.496 67.2431 120.406 67.2085 120.316 67.1739C120.261 67.16 120.212 67.1462 120.157 67.1393C119.984 67.1046 119.824 67.0769 119.672 67.07C119.506 67.0492 119.36 67.0423 119.18 67.0423C119 67.0423 118.841 67.0492 118.702 67.07C118.564 67.0769 118.432 67.0977 118.266 67.1393C118.121 67.16 117.989 67.1947 117.83 67.2501C117.026 67.4994 116.272 68.0118 115.586 68.7598C114.983 69.4108 114.734 70.1795 114.824 71.1075C114.866 71.5715 114.963 72.0286 115.115 72.4649C115.226 72.7488 115.344 73.005 115.489 73.2405C115.794 73.7668 116.202 74.2239 116.708 74.5979C116.729 74.6117 116.742 74.6256 116.763 74.6325C116.888 74.7364 117.013 74.8126 117.151 74.8887C117.428 75.0549 117.712 75.2004 117.989 75.3112C118.072 75.3389 118.155 75.3735 118.252 75.4081C118.599 75.5397 118.938 75.6505 119.201 75.7267C120.157 76.0176 121.154 76.2323 122.013 76.3985C123.585 76.7101 125.157 76.8694 126.681 76.8694C128.35 76.8694 130.012 76.6755 131.611 76.2877C136.044 75.2211 139.936 72.7211 143.191 68.8498C144.597 67.1739 145.476 65.5395 145.878 63.8566C145.989 63.4273 146.058 62.9702 146.127 62.5339C146.134 62.4993 146.141 62.4577 146.148 62.4231C146.148 62.4092 146.148 62.4023 146.155 62.3885C146.286 61.322 146.266 60.574 146.231 60.2554Z" fill="white"/>
<path id="Vector_14" d="M113.668 61.1835C113.114 59.5837 112.566 57.8524 112.289 56.031C111.673 52.1182 111.763 48.1568 111.943 44.4587L112.068 42.021C112.082 41.7717 112.102 41.5293 112.123 41.2869C112.158 40.8714 112.186 40.4766 112.186 40.0749V39.8741C112.186 39.7148 112.165 39.5555 112.144 39.4032C112.089 39.0569 111.992 38.773 111.839 38.5306L111.784 38.4475C111.631 38.2259 111.424 38.0597 111.167 37.935C110.994 37.845 110.807 37.7826 110.586 37.748C110.288 37.6926 110.004 37.6649 109.706 37.6649C108.778 37.6649 107.919 37.9696 107.151 38.5652C105.53 39.8187 104.63 41.2661 104.387 42.9836C104.353 43.2329 104.325 43.4961 104.318 43.7939C104.311 44.1817 104.304 44.5626 104.29 44.9435C104.263 45.7745 104.214 46.5225 104.159 47.2358C104.013 49.1818 103.736 51.107 103.349 52.963C103.058 54.355 102.656 55.7124 102.164 57.0005C101.901 57.6723 101.617 58.3233 101.319 58.9258C100.994 59.5837 100.648 60.207 100.288 60.7887C99.2972 62.3885 98.1268 63.4827 96.714 64.1544C96.437 64.286 96.1461 64.376 95.8691 64.4107C95.696 64.4384 95.5506 64.4453 95.4121 64.4453C95.3913 64.4453 95.3497 64.4453 95.3082 64.4384C95.0796 64.4384 94.858 64.4037 94.6226 64.3414C93.7084 64.106 93.0089 63.5242 92.538 62.6101C91.797 61.1488 91.4368 59.4452 91.4022 57.2429C91.326 52.693 92.0532 47.9352 93.6184 42.6997C94.1378 40.9752 94.7195 38.6899 94.6087 36.3145C94.6087 36.1275 94.5879 35.9405 94.5672 35.7535C94.5395 35.4834 94.4979 35.2203 94.4286 34.9779C94.3248 34.5416 94.1585 34.1607 93.9369 33.8421C93.8885 33.7659 93.8469 33.7036 93.7984 33.6551C93.6738 33.5028 93.556 33.385 93.4314 33.2812C93.3898 33.2465 93.3552 33.2119 93.3344 33.205L93.3067 33.1911L93.279 33.1704C93.279 33.1704 93.2098 33.1219 93.1682 33.108L93.1405 33.0942L93.1128 33.0803C93.1128 33.0803 93.0436 33.0457 93.0089 33.0319C92.8704 32.9764 92.7596 32.9487 92.6419 32.9418C92.4064 32.9141 92.1779 32.9003 91.9563 32.9003C90.2595 32.9003 88.9714 33.5859 88.0157 34.9848C87.3854 35.899 86.8522 36.8685 86.409 37.8658C86.3189 38.0666 86.2358 38.2605 86.1596 38.4613C85.9934 38.8561 85.848 39.2647 85.7095 39.6663C85.2455 41.0168 84.8854 42.4365 84.6014 44.0155C84.3452 45.3936 84.179 46.7856 84.0543 47.8452C83.6873 51.3079 83.6595 54.6805 83.985 57.8662C84.3244 61.3081 84.9754 64.2999 85.9727 67.0008C86.402 68.1642 86.866 69.1684 87.3924 70.0756C87.6763 70.5673 87.981 71.0313 88.3065 71.4676C88.6251 71.897 88.9922 72.3264 89.3938 72.7419C89.4631 72.8111 89.5254 72.8735 89.6016 72.9427C90.2041 73.5244 90.8413 73.9469 91.513 74.217C91.8108 74.3347 92.1086 74.4247 92.4064 74.4801C92.725 74.5425 93.0436 74.5702 93.3691 74.5702H93.4037C93.5145 74.5702 93.6184 74.5702 93.7222 74.5563C94.9619 74.4801 96.1669 74.0854 97.3304 73.3859C99.9067 71.8416 101.97 69.6462 103.633 66.6614C103.847 66.2805 104.048 65.8858 104.242 65.4979C104.422 65.1378 104.602 64.7846 104.796 64.4314C104.935 64.1614 105.101 63.9259 105.281 63.7251C105.44 63.5519 105.655 63.358 105.925 63.358C106.368 63.358 106.507 63.8566 106.562 64.0436C106.791 64.8193 107.04 65.6503 107.338 66.4744C107.594 67.167 108.079 67.6448 108.834 67.9288C108.896 67.9565 108.951 67.9772 109.014 67.9911C109.235 68.0673 109.443 68.1157 109.644 68.1504C109.865 68.185 110.059 68.1988 110.239 68.1988C111.555 68.1988 112.719 67.4578 113.356 66.2113C114.166 64.6254 114.27 62.9217 113.661 61.1488L113.668 61.1835Z" fill="white"/>
<path id="Vector_15" d="M79.8229 75.5813C79.7052 75.3528 79.5874 75.1311 79.4697 74.9095C79.1234 74.2516 78.7633 73.566 78.4586 72.8735C77.6206 71.0244 77.0388 68.9676 76.5748 66.2182C76.1178 63.4619 75.82 60.6087 75.6607 57.4922C75.536 54.9783 75.4875 52.4644 75.5222 50.0198C75.5776 45.5668 75.8615 40.8506 76.4433 34.7355C76.5194 33.9737 76.6233 32.9695 76.748 31.9723C77.025 29.7492 77.302 27.5262 77.5929 25.3032L77.6898 24.5829C77.8976 23.0386 78.1123 21.4388 78.3616 19.8737C78.5902 18.4886 78.8464 17.0758 79.0957 15.7115C79.2204 15.0398 79.345 14.3611 79.4628 13.6893C79.4628 13.6408 79.4766 13.5854 79.4905 13.53C79.5182 13.3084 79.532 13.1353 79.5389 12.9622C79.5459 12.8791 79.5389 12.8237 79.5389 12.7683C79.5389 12.602 79.4974 12.4497 79.4281 12.332C79.3658 12.2142 79.2758 12.1311 79.165 12.0619L79.1234 12.0411L79.1096 12.0272C79.0611 11.9995 79.0126 11.9788 78.9641 11.9649L78.8741 11.9441L78.8602 11.9303C78.8602 11.9303 78.8395 11.9303 78.8325 11.9234H78.7979L78.7564 11.9026C78.7356 11.8957 78.7148 11.8957 78.694 11.8887L78.6248 11.8749C78.2647 11.8125 77.8907 11.7779 77.5167 11.7779C76.6787 11.7779 75.8546 11.9511 75.072 12.2835C74.3656 12.5882 73.777 12.9691 73.3199 13.4262C73.1744 13.5647 73.0429 13.724 72.9459 13.8417C72.8559 13.9594 72.7589 14.091 72.6758 14.2295C72.4265 14.6381 72.2395 15.0952 72.1148 15.6007C72.0733 15.76 72.0387 15.9124 72.004 16.0716L71.914 16.4387C71.7547 17.1659 71.5954 17.9415 71.4085 18.9526C70.8752 21.7712 70.3904 24.8115 69.9264 28.2464C69.8294 28.9597 69.7394 29.6731 69.6494 30.3864C69.5801 30.9266 69.5178 31.4806 69.4555 32.0208L69.4347 32.1939C69.3585 32.8172 69.2893 33.4405 69.2269 34.0568C69.2269 34.0984 69.22 34.1468 69.2131 34.1884C69.2131 34.2299 69.2062 34.2646 69.1992 34.3061C69.1923 34.3892 69.1854 34.4723 69.1715 34.5624C69.1646 34.6385 69.1577 34.7216 69.1507 34.7978C69.1161 35.1302 69.0815 35.4557 69.0469 35.7743C69.0122 36.0998 68.9776 36.4253 68.943 36.7508L68.8876 37.3671C68.846 37.7827 68.8114 38.1982 68.7768 38.6068C68.7144 39.2855 68.659 39.9434 68.6036 40.6151C68.5829 40.8437 68.5621 41.0722 68.5482 41.2938L68.5205 41.6193C68.4582 42.4226 68.3959 43.2398 68.3474 44.0501C68.3266 44.5903 68.3058 45.1374 68.2781 45.6845L68.2504 46.3009C68.1881 47.7067 68.1258 49.161 68.105 50.5877C68.0912 51.5087 68.0842 52.4298 68.0842 53.3578C68.0842 54.9576 68.1119 56.5227 68.1327 57.7069C68.1327 58.1017 68.1466 58.4826 68.1604 58.8704C68.202 59.9923 68.2643 61.1419 68.3612 62.3746C68.3959 62.8178 68.4374 63.2472 68.479 63.6835C68.5967 64.8955 68.7491 66.1836 68.9291 67.6102C68.9845 68.0603 69.0469 68.5036 69.1161 68.9537C69.3308 70.3596 69.6078 71.6962 69.9403 72.9358C70.4597 74.9026 71.1176 76.5855 71.9556 78.0675C72.0387 78.206 72.1218 78.3514 72.2187 78.483C72.3157 78.6284 72.4126 78.76 72.5165 78.8847C72.6135 78.9955 72.7104 79.1201 72.8143 79.2379L72.8489 79.2725C72.9251 79.3487 73.0013 79.4318 73.0844 79.508L73.1121 79.5357L73.2229 79.6395C73.2991 79.7157 73.3822 79.785 73.4653 79.8542C73.9085 80.2144 74.3725 80.4844 74.8573 80.6437C75.1136 80.7338 75.3698 80.7892 75.6468 80.8169C75.7923 80.8376 75.9239 80.8515 76.1039 80.8515C76.3325 80.8515 76.5679 80.8307 76.8172 80.7961C79.1996 80.429 80.3561 79.1686 80.2661 77.0564C80.2523 76.5855 80.1138 76.1215 79.8367 75.5882L79.8229 75.5813Z" fill="white"/>
<path id="Vector_16" d="M61.789 20.6008C60.5839 18.731 59.0396 17.0966 57.2112 15.7531C55.3414 14.3819 53.2845 13.2253 50.9229 12.235C46.4906 10.379 41.5874 9.20861 35.9362 8.68229C34.5858 8.5507 33.1383 8.4953 31.5039 8.4953C31.0191 8.4953 30.5413 8.50223 30.0565 8.50915C28.1936 8.54378 26.3514 8.74461 24.5923 9.09781C22.5008 9.52718 20.4994 10.3513 18.6364 11.5702C17.7638 12.138 16.9812 12.8375 16.3233 13.6478C15.7901 14.3195 15.2083 15.4691 15.1321 16.0855C15.0975 16.3556 15.0213 16.9096 15.1806 17.2143C15.513 17.8515 15.9355 18.2047 16.5103 18.3085C16.7873 18.357 17.1128 18.4124 17.6669 18.4193C18.3663 18.4193 19.1281 18.3085 19.9038 18.1008C21.7944 17.5745 23.6782 17.3805 25.9289 17.242C29.4817 17.0204 33.2353 17.1659 37.0235 17.6714C39.4751 17.9969 41.6705 18.4609 43.7066 19.0842C46.0405 19.7906 48.1527 20.8017 49.988 22.0967C50.9298 22.7477 51.6501 23.461 52.1972 24.2644C53.3399 25.9334 53.7623 27.7547 53.4646 29.6731V29.7631C53.4299 29.9085 53.4092 30.054 53.4022 30.2063C53.3399 31.1482 53.0906 32.0831 52.6266 33.1704C51.8994 34.8602 50.9091 36.453 49.6833 37.8935C48.8037 38.9253 47.8203 39.9018 46.6776 40.8852C45.4102 41.9794 44.2883 42.8105 43.1595 43.503C41.4004 44.5764 39.4336 45.5391 37.1412 46.4394C36.9889 46.4948 36.8642 46.5502 36.5872 46.6125C36.1301 46.7164 35.6869 46.4878 35.396 46.1C35.2298 45.8715 35.1121 45.5875 35.0913 45.3105C35.0567 44.9643 35.029 44.5626 35.0498 44.1471C35.1606 42.298 35.2921 40.1165 35.493 37.9419C35.6453 36.0929 35.8046 34.2369 35.9639 32.3878C36.0332 31.5845 36.0124 30.885 35.9085 30.234C35.7769 29.4307 35.5553 28.3849 35.029 27.4916C34.4957 26.5843 33.7685 26.058 32.8059 25.871C32.6328 25.8364 32.4319 25.8295 32.2034 25.8295C32.1272 25.8295 32.051 25.8226 31.9748 25.8226C31.123 25.8295 30.4997 26.0996 30.0773 26.3904C29.9111 26.5012 29.7587 26.6328 29.6271 26.7783C29.5509 26.8683 29.4817 26.9375 29.4332 27.0068L29.3085 27.1938C29.1977 27.3669 29.1146 27.5608 29.0385 27.7686C29.0108 27.8655 28.9761 27.9486 28.9346 28.0456C28.9069 28.1149 28.8792 28.198 28.8445 28.2672C28.6091 28.9597 28.4152 29.7285 28.242 30.7257C27.9996 32.1177 27.7642 33.5097 27.5356 34.9086L27.404 35.7258C27.2517 36.6469 27.0924 37.6095 26.9885 38.5444C26.6076 41.7994 26.3514 44.4449 26.199 46.8549C26.1782 47.2011 26.1505 47.5474 26.1228 47.9006L26.0674 48.6693C26.0259 49.2857 25.7073 49.7843 25.174 50.0821C24.6962 50.3453 24.1768 50.5946 23.5535 50.6569C23.1795 50.6985 22.8125 50.7469 22.4385 50.7885C21.9468 50.8439 21.4551 50.9062 20.9634 50.9547C19.232 51.1278 17.5145 51.294 15.7901 51.4602C14.3149 51.5988 12.8467 51.7442 11.3716 51.8758L9.36323 52.0628C8.78149 52.1182 8.42136 52.1874 7.92965 52.2982C7.73574 52.3398 7.52105 52.4714 7.35484 52.6653C6.69692 53.3993 6.39913 54.1265 6.34372 54.8468C6.29525 55.6016 6.3368 56.3496 6.47531 57.1183C6.68307 58.2679 7.20941 59.1751 8.07509 59.8884C8.26208 60.0477 8.44214 60.117 8.65683 60.1239H9.01003C9.37015 60.1447 9.73027 60.1516 10.0904 60.1447L11.6902 60.0892C13.4631 60.0269 15.2429 59.9577 17.0159 59.8746C18.5879 59.7984 20.1669 59.6945 21.7806 59.5906L24.0313 59.4452C25.0355 59.4452 25.3333 60.0685 25.4649 60.5255C25.5688 60.8441 25.5827 61.1765 25.5896 61.4674C25.5896 61.6682 25.5827 61.8552 25.5757 62.0491C25.5757 62.25 25.5688 62.43 25.5757 62.6101C25.645 65.8719 25.7696 68.5036 26.012 70.9067C26.2544 73.4344 26.6353 75.6228 27.1547 77.6035C27.5841 79.224 28.0827 80.4706 28.7476 81.544C29.0454 82.0011 29.2808 82.3266 29.5302 82.5828C30.1188 83.22 30.8599 83.5039 31.7532 83.4346C32.8959 83.3585 34.0802 83.1576 35.2298 82.5205C35.7631 82.2227 36.3102 81.6756 36.4695 81.3986C36.8642 80.713 36.975 80.1105 36.9196 79.1755C36.885 78.4622 36.7742 77.7212 36.6842 77.0979C36.4833 75.7336 36.0539 74.4248 35.6038 73.0882C35.2644 72.0909 35.0775 71.2183 34.9597 70.4911C34.8004 69.5216 34.6966 68.3581 34.6204 67.1739C34.5788 66.5229 34.5511 65.865 34.5234 65.2071C34.5096 64.6392 34.4888 64.0644 34.4542 63.4965C34.3295 61.4674 34.4611 59.4244 34.5996 57.6723C34.6135 57.5338 34.6204 57.423 34.6412 57.3053C34.8281 56.3149 35.4307 55.9479 35.9016 55.8094C35.9708 55.7886 36.047 55.7609 36.1163 55.7332L36.2548 55.6778C40.043 54.1819 43.4434 52.5198 46.643 50.5946C50.2165 48.4477 53.2222 46.2385 55.8192 43.8354C58.1462 41.6955 59.9399 39.4932 61.325 37.104C63.0355 34.1607 63.8735 31.259 63.8874 28.2395C63.8943 25.3101 63.1948 22.8031 61.7474 20.5662L61.789 20.6008Z" fill="white"/>
</g>
</g>
</svg>
